<?xml version="1.0" encoding="UTF-8" standalone="no"?><!DOCTYPE svg PUBLIC "-//W3C//DTD SVG 1.1//EN" "http://www.w3.org/Graphics/SVG/1.1/DTD/svg11.dtd"><svg width="100%" height="100%" viewBox="0 0 200 200" version="1.1" xmlns="http://www.w3.org/2000/svg" xmlns:xlink="http://www.w3.org/1999/xlink" xml:space="preserve" xmlns:serif="http://www.serif.com/" style="fill-rule:evenodd;clip-rule:evenodd;stroke-linejoin:round;stroke-miterlimit:1.41421;"><g><g><path d="M200,175l-25,25l25,0l0,-25Z" style="fill:#fff;"/><path d="M0,0l0,25l25,-25l-25,0Z" style="fill:#fff;"/><path d="M200,0l-25,25l-25,25l0,-25l-125,0l25,-25l150,0Z" style="fill:#e24f4f;"/><path d="M50,175l125,0l-25,25l-150,0l25,-25l25,-25l0,25Z" style="fill:#e24f4f;"/></g><g><path d="M100,100l25,-25l-25,0l0,25Z" style="fill:#fff;"/><path d="M100,100l25,25l-25,0l0,-25Z" style="fill:#fff;"/><rect x="75" y="75" width="12.5" height="50" style="fill:#fff;"/></g></g></svg>