<?xml version="1.0" encoding="UTF-8" standalone="no"?><!DOCTYPE svg PUBLIC "-//W3C//DTD SVG 1.1//EN" "http://www.w3.org/Graphics/SVG/1.1/DTD/svg11.dtd"><svg width="100%" height="100%" viewBox="0 0 200 200" version="1.1" xmlns="http://www.w3.org/2000/svg" xmlns:xlink="http://www.w3.org/1999/xlink" xml:space="preserve" xmlns:serif="http://www.serif.com/" style="fill-rule:evenodd;clip-rule:evenodd;stroke-linecap:round;stroke-linejoin:round;stroke-miterlimit:1.5;"><g id="Self"><path id="Shirt" d="M11.892,199.412c-1.73,-5.381 11.597,-24.778 19.475,-28.684c8.13,-4.031 15.725,-9.85 18.74,-13.992c3.328,-4.573 10.463,-7.491 13.143,-10.069c1.476,-1.421 0.996,-4.735 2.933,-5.4c2.729,-0.937 8.991,-0.741 13.441,-0.221c11.853,1.384 46.265,4.817 57.676,8.527c5.537,1.8 8.937,10.577 10.791,13.735c0.882,1.501 -0.518,3.695 0.337,5.211c0.943,1.672 3.489,3.28 5.321,4.821c2.075,1.747 5.374,4.397 7.132,5.658c1.06,0.76 2.257,1.31 3.416,1.909c2.076,1.071 6.374,2.461 9.041,4.52c3.994,3.084 14.923,13.985 14.923,13.985c0,0 -175.943,1.324 -176.369,0Z" style="fill:#111321;"/><clipPath id="_clip1"><path d="M11.892,199.412c-1.73,-5.381 11.597,-24.778 19.475,-28.684c8.13,-4.031 15.725,-9.85 18.74,-13.992c3.328,-4.573 10.463,-7.491 13.143,-10.069c1.476,-1.421 0.996,-4.735 2.933,-5.4c2.729,-0.937 8.991,-0.741 13.441,-0.221c11.853,1.384 46.265,4.817 57.676,8.527c5.537,1.8 8.937,10.577 10.791,13.735c0.882,1.501 -0.518,3.695 0.337,5.211c0.943,1.672 3.489,3.28 5.321,4.821c2.075,1.747 5.374,4.397 7.132,5.658c1.06,0.76 2.257,1.31 3.416,1.909c2.076,1.071 6.374,2.461 9.041,4.52c3.994,3.084 14.923,13.985 14.923,13.985c0,0 -175.943,1.324 -176.369,0Z"/></clipPath><g clip-path="url(#_clip1)"><path d="M71.343,152.192c-1.173,-1.426 -4.27,-6.219 -5.1,-7.768c-0.24,-0.448 -0.317,-1.267 0.124,-1.522c0.651,-0.377 2.503,-0.643 3.785,-0.741c1.975,-0.151 7.05,-1.33 8.065,-0.164c1.015,1.165 -1.152,5.328 -1.975,7.159c-0.661,1.472 -2.146,3.321 -2.963,3.827c-0.592,0.367 -1.493,-0.252 -1.936,-0.791Z" style="fill-opacity:0.501961;stroke:#000;stroke-width:1px;"/><path d="M34.823,168.892c7.721,-0.329 20.534,10.38 26.14,16.496c4.854,5.296 14.352,18.056 7.497,20.204c-10.042,3.146 -58.782,1.712 -67.753,-1.325c-6.915,-2.341 8.859,-11.647 13.927,-16.901c5.686,-5.896 12.467,-18.144 20.189,-18.474Z" style="fill-opacity:0.501961;stroke:#000;stroke-width:1px;"/><path d="M155.789,173.414c2.9,0.985 14.719,7.738 20.818,12.388c5.865,4.472 17.034,12.635 15.777,15.512c-1.256,2.876 -18.621,3.689 -23.314,1.749c-4.386,-1.812 -2.834,-6.996 -4.845,-13.386c-0.904,-2.873 -2.84,-6.342 -5.016,-9.787c-2.194,-3.473 -5.731,-7.262 -3.42,-6.476Z" style="fill-opacity:0.501961;stroke:#000;stroke-width:1px;"/></g><path d="M11.892,199.412c-1.73,-5.381 11.597,-24.778 19.475,-28.684c8.13,-4.031 15.725,-9.85 18.74,-13.992c3.328,-4.573 10.463,-7.491 13.143,-10.069c1.476,-1.421 0.996,-4.735 2.933,-5.4c2.729,-0.937 8.991,-0.741 13.441,-0.221c11.853,1.384 46.265,4.817 57.676,8.527c5.537,1.8 8.937,10.577 10.791,13.735c0.882,1.501 -0.518,3.695 0.337,5.211c0.943,1.672 3.489,3.28 5.321,4.821c2.075,1.747 5.374,4.397 7.132,5.658c1.06,0.76 2.257,1.31 3.416,1.909c2.076,1.071 6.374,2.461 9.041,4.52c3.994,3.084 14.923,13.985 14.923,13.985c0,0 -175.943,1.324 -176.369,0Z" style="fill:none;stroke:#000;stroke-width:1px;"/><path id="Neck" d="M74.393,118.5c0.814,1.626 1.652,14.466 -0.319,19.541c-1.393,3.586 -5.614,10.081 -5.614,10.081c0,0 1.986,7.244 10.022,16.28c5.444,6.121 14.448,16.569 24.575,21.788c8.036,4.142 13.653,7.406 19.216,6.782c5.564,-0.625 11.449,-7.256 14.165,-10.528c1.99,-2.398 1.722,-6.682 2.13,-9.104c0.3,-1.787 1.69,-4.249 0.313,-5.426c-10.696,-9.14 -69.815,-60.048 -64.488,-49.414Z" style="fill:#ffdaba;"/><clipPath id="_clip2"><path d="M74.393,118.5c0.814,1.626 1.652,14.466 -0.319,19.541c-1.393,3.586 -5.614,10.081 -5.614,10.081c0,0 1.986,7.244 10.022,16.28c5.444,6.121 14.448,16.569 24.575,21.788c8.036,4.142 13.653,7.406 19.216,6.782c5.564,-0.625 11.449,-7.256 14.165,-10.528c1.99,-2.398 1.722,-6.682 2.13,-9.104c0.3,-1.787 1.69,-4.249 0.313,-5.426c-10.696,-9.14 -69.815,-60.048 -64.488,-49.414Z"/></clipPath><g clip-path="url(#_clip2)"><path d="M85.343,186.521c7.554,-1.141 29.95,-8.115 29.27,-11.724c-0.319,-1.694 -10.502,-7.99 -15.639,-12.015c-6.968,-5.459 -11.058,-11.962 -15.473,-17.415c-7.93,-9.796 60.667,-2.276 69.879,4.75c9.211,7.026 -6.805,28.532 -14.612,37.407c-7.754,8.814 -23.329,16.009 -32.234,15.842c-8.904,-0.167 -29.543,-15.584 -21.191,-16.845Z" style="fill:#ffcda2;"/><path d="M116.411,191.817c1.949,-1.902 10.696,-4.526 13.881,-8.341c3.185,-3.815 3.106,-11.917 5.23,-14.547c1.594,-1.975 6.212,-2.774 7.511,-1.237c1.3,1.538 0.93,7.032 0.285,10.459c-0.855,4.548 -1.299,14.041 -5.419,16.83c-4.12,2.789 -15.72,0.432 -19.302,-0.095c-1.242,-0.183 -3.085,-2.192 -2.186,-3.069Z" style="fill:#ffb675;"/><path d="M69.957,160.604c4.166,3.754 12.321,-8.699 13.183,-21.474c0.475,-7.036 -2.179,-16.192 -4.199,-19.872c-1.318,-2.403 -6.473,-4.539 -7.919,-2.211c-2.769,4.454 -8.515,21.679 -8.692,28.939c-0.134,5.494 4.823,12.092 7.627,14.618Z" style="fill:#ffe2c9;"/></g><path d="M74.393,118.5c0.814,1.626 1.652,14.466 -0.319,19.541c-1.393,3.586 -5.614,10.081 -5.614,10.081c0,0 1.986,7.244 10.022,16.28c5.444,6.121 14.448,16.569 24.575,21.788c8.036,4.142 13.653,7.406 19.216,6.782c5.564,-0.625 11.449,-7.256 14.165,-10.528c1.99,-2.398 1.722,-6.682 2.13,-9.104c0.3,-1.787 1.69,-4.249 0.313,-5.426c-10.696,-9.14 -69.815,-60.048 -64.488,-49.414Z" style="fill:none;stroke:#000;stroke-width:1px;"/><g id="Face"><path d="M179.731,68.218c-0.004,0.26 -0.189,0.468 -0.302,0.741c-0.175,0.421 -0.307,0.913 -0.345,1.343c-0.08,0.912 0.352,1.804 0.368,2.439c0.02,0.766 0.327,1.498 0.451,2.255c0.15,0.913 0.491,2.451 0.451,3.225c-0.028,0.527 -0.451,0.954 -0.694,1.422c-0.248,0.48 -0.552,0.961 -0.798,1.457c-0.254,0.515 -0.605,1.081 -0.728,1.63c-0.122,0.543 -0.049,1.115 -0.011,1.67c0.08,1.154 0.289,3.559 0.488,5.257c0.193,1.649 0.49,3.285 0.705,4.932c0.261,2.014 0.758,4.886 0.867,7.153c0.102,2.149 0.054,4.372 -0.217,6.45c-0.266,2.042 -0.894,4.2 -1.409,6.016c-0.469,1.654 -1.274,3.685 -1.68,4.877c-0.258,0.757 -0.329,1.602 -0.759,2.277c-0.807,1.266 -2.366,3.888 -4.081,5.323c-2.279,1.907 -6.353,4.148 -9.593,6.12c-4.576,2.784 -10.942,10.603 -17.863,10.585c-10.419,-0.028 -34.457,-7.195 -44.656,-10.751c-6.181,-2.155 -12.708,-7.801 -16.539,-10.585c-2.398,-1.742 -5.61,-3.278 -6.451,-6.12c-1.726,-5.838 -3.285,-23.623 -3.909,-28.909c-0.11,-0.929 0.143,-2.136 0.166,-2.802c0.014,-0.398 -0.023,-0.856 -0.028,-1.193c-0.003,-0.278 0.004,-0.555 0,-0.833c-0.004,-0.319 -0.023,-0.777 -0.027,-1.082c-0.004,-0.25 -0.001,-0.499 0,-0.749c0.001,-0.306 0.013,-0.725 0.006,-1.087c-0.027,-1.571 -0.298,-5.8 -0.172,-8.336c0.114,-2.312 0.425,-4.621 0.926,-6.881c0.816,-3.682 2.867,-10.091 3.969,-15.216c1.232,-5.723 2.195,-14.859 3.417,-19.123c0.694,-2.419 2.457,-4.406 3.917,-6.457c1.747,-2.452 3.914,-5.944 6.563,-8.256c2.888,-2.521 7.625,-5.529 10.765,-6.87c2.502,-1.069 5.933,-0.979 8.077,-1.175c1.589,-0.145 3.207,-0.219 4.787,0c6.227,0.863 24.46,3.611 32.572,5.179c5.446,1.052 12.708,2.836 16.096,4.227c1.821,0.748 3.008,2.577 4.231,4.119c1.355,1.709 2.863,3.944 3.899,6.134c1.079,2.283 1.945,4.976 2.575,7.564c1.247,5.123 4.081,17.503 4.908,23.175c0.523,3.58 0.095,8.292 0.058,10.855Z" style="fill:#ffdaba;"/><clipPath id="_clip3"><path d="M179.731,68.218c-0.004,0.26 -0.189,0.468 -0.302,0.741c-0.175,0.421 -0.307,0.913 -0.345,1.343c-0.08,0.912 0.352,1.804 0.368,2.439c0.02,0.766 0.327,1.498 0.451,2.255c0.15,0.913 0.491,2.451 0.451,3.225c-0.028,0.527 -0.451,0.954 -0.694,1.422c-0.248,0.48 -0.552,0.961 -0.798,1.457c-0.254,0.515 -0.605,1.081 -0.728,1.63c-0.122,0.543 -0.049,1.115 -0.011,1.67c0.08,1.154 0.289,3.559 0.488,5.257c0.193,1.649 0.49,3.285 0.705,4.932c0.261,2.014 0.758,4.886 0.867,7.153c0.102,2.149 0.054,4.372 -0.217,6.45c-0.266,2.042 -0.894,4.2 -1.409,6.016c-0.469,1.654 -1.274,3.685 -1.68,4.877c-0.258,0.757 -0.329,1.602 -0.759,2.277c-0.807,1.266 -2.366,3.888 -4.081,5.323c-2.279,1.907 -6.353,4.148 -9.593,6.12c-4.576,2.784 -10.942,10.603 -17.863,10.585c-10.419,-0.028 -34.457,-7.195 -44.656,-10.751c-6.181,-2.155 -12.708,-7.801 -16.539,-10.585c-2.398,-1.742 -5.61,-3.278 -6.451,-6.12c-1.726,-5.838 -3.285,-23.623 -3.909,-28.909c-0.11,-0.929 0.143,-2.136 0.166,-2.802c0.014,-0.398 -0.023,-0.856 -0.028,-1.193c-0.003,-0.278 0.004,-0.555 0,-0.833c-0.004,-0.319 -0.023,-0.777 -0.027,-1.082c-0.004,-0.25 -0.001,-0.499 0,-0.749c0.001,-0.306 0.013,-0.725 0.006,-1.087c-0.027,-1.571 -0.298,-5.8 -0.172,-8.336c0.114,-2.312 0.425,-4.621 0.926,-6.881c0.816,-3.682 2.867,-10.091 3.969,-15.216c1.232,-5.723 2.195,-14.859 3.417,-19.123c0.694,-2.419 2.457,-4.406 3.917,-6.457c1.747,-2.452 3.914,-5.944 6.563,-8.256c2.888,-2.521 7.625,-5.529 10.765,-6.87c2.502,-1.069 5.933,-0.979 8.077,-1.175c1.589,-0.145 3.207,-0.219 4.787,0c6.227,0.863 24.46,3.611 32.572,5.179c5.446,1.052 12.708,2.836 16.096,4.227c1.821,0.748 3.008,2.577 4.231,4.119c1.355,1.709 2.863,3.944 3.899,6.134c1.079,2.283 1.945,4.976 2.575,7.564c1.247,5.123 4.081,17.503 4.908,23.175c0.523,3.58 0.095,8.292 0.058,10.855Z"/></clipPath><g clip-path="url(#_clip3)"><path d="M148.378,14.051c-2.867,2.341 7.123,10.348 9.041,16.239c1.992,6.12 4.537,13.803 2.913,20.479c-1.62,6.661 -9.591,20.567 -12.088,28.152c-0.445,1.354 0.019,6.75 1.265,11.507c1.061,4.05 2.85,7.618 3.382,8.033c0.725,0.566 3.409,3.643 3.227,7.54c-0.032,0.679 -0.132,1.848 -0.462,2.503c-2.238,4.44 -10.235,7.516 -7.412,5.819c1.043,-0.627 13.296,19.41 14.568,18.259c4.274,-3.869 14.893,-6.343 19.354,-16.862c6.568,-15.49 6.537,-39.982 8.47,-43.016c5.109,-8.018 -0.69,-19.186 -3.285,-28.333c-2.669,-9.41 -6.233,-23.074 -12.729,-28.127c-6.496,-5.054 -23.377,-4.534 -26.244,-2.193Z" style="fill:#fed5b1;"/><path d="M160.406,15.128c4.629,5.183 7.5,10.925 9.754,17.082c2.663,7.27 5.366,20.541 6.22,26.539c0.448,3.138 -1.005,6.338 -1.093,9.446c-0.086,3.071 0.718,6.13 0.569,9.199c-0.077,1.585 -1.532,3.412 -1.842,5.494c-0.462,3.097 2.535,19.278 2.478,21.685c-0.076,3.252 -0.375,8.204 -1.962,11.896c-1.593,3.709 -8.135,8.243 -7.598,10.354c0.537,2.11 7.417,3.731 10.819,2.308c3.856,-1.614 11.118,-6.387 12.319,-11.99c1.751,-8.178 -0.894,-24.739 -1.809,-37.08c-1.046,-14.114 -1.67,-36.673 -4.468,-47.602c-1.802,-7.036 -8.423,-15.083 -12.321,-17.971c-2.969,-2.2 -13.528,-2.115 -11.066,0.64Z" style="fill:#fecca0;"/><path d="M80.741,116.755c-2.625,-6.006 -3.399,-23.244 -2.13,-33.327c1.201,-9.546 7.588,-19.31 9.743,-27.169c1.783,-6.506 0.793,-12.197 3.184,-19.987c1.483,-4.83 5.022,-13.412 13.88,-18.318c8.031,-4.448 25.046,-3.148 24.694,-5.734c-0.739,-5.44 -31.79,-15.847 -43.008,-8.586c-11.219,7.261 -21.927,33.119 -24.301,52.15c-2.409,19.304 6.858,53.517 9.848,63.679c0.802,2.728 9.076,-0.452 8.09,-2.708Z" style="fill:#ffe2c9;"/></g><path d="M179.731,68.218c-0.004,0.26 -0.189,0.468 -0.302,0.741c-0.175,0.421 -0.307,0.913 -0.345,1.343c-0.08,0.912 0.352,1.804 0.368,2.439c0.02,0.766 0.327,1.498 0.451,2.255c0.15,0.913 0.491,2.451 0.451,3.225c-0.028,0.527 -0.451,0.954 -0.694,1.422c-0.248,0.48 -0.552,0.961 -0.798,1.457c-0.254,0.515 -0.605,1.081 -0.728,1.63c-0.122,0.543 -0.049,1.115 -0.011,1.67c0.08,1.154 0.289,3.559 0.488,5.257c0.193,1.649 0.49,3.285 0.705,4.932c0.261,2.014 0.758,4.886 0.867,7.153c0.102,2.149 0.054,4.372 -0.217,6.45c-0.266,2.042 -0.894,4.2 -1.409,6.016c-0.469,1.654 -1.274,3.685 -1.68,4.877c-0.258,0.757 -0.329,1.602 -0.759,2.277c-0.807,1.266 -2.366,3.888 -4.081,5.323c-2.279,1.907 -6.353,4.148 -9.593,6.12c-4.576,2.784 -10.942,10.603 -17.863,10.585c-10.419,-0.028 -34.457,-7.195 -44.656,-10.751c-6.181,-2.155 -12.708,-7.801 -16.539,-10.585c-2.398,-1.742 -5.61,-3.278 -6.451,-6.12c-1.726,-5.838 -3.285,-23.623 -3.909,-28.909c-0.11,-0.929 0.143,-2.136 0.166,-2.802c0.014,-0.398 -0.023,-0.856 -0.028,-1.193c-0.003,-0.278 0.004,-0.555 0,-0.833c-0.004,-0.319 -0.023,-0.777 -0.027,-1.082c-0.004,-0.25 -0.001,-0.499 0,-0.749c0.001,-0.306 0.013,-0.725 0.006,-1.087c-0.027,-1.571 -0.298,-5.8 -0.172,-8.336c0.114,-2.312 0.425,-4.621 0.926,-6.881c0.816,-3.682 2.867,-10.091 3.969,-15.216c1.232,-5.723 2.195,-14.859 3.417,-19.123c0.694,-2.419 2.457,-4.406 3.917,-6.457c1.747,-2.452 3.914,-5.944 6.563,-8.256c2.888,-2.521 7.625,-5.529 10.765,-6.87c2.502,-1.069 5.933,-0.979 8.077,-1.175c1.589,-0.145 3.207,-0.219 4.787,0c6.227,0.863 24.46,3.611 32.572,5.179c5.446,1.052 12.708,2.836 16.096,4.227c1.821,0.748 3.008,2.577 4.231,4.119c1.355,1.709 2.863,3.944 3.899,6.134c1.079,2.283 1.945,4.976 2.575,7.564c1.247,5.123 4.081,17.503 4.908,23.175c0.523,3.58 0.095,8.292 0.058,10.855Z" style="fill:none;stroke:#000;stroke-width:1px;"/><path d="M176.656,119.697c0,0 2.898,-6.556 3.368,-12.843c0.118,-1.571 0.096,-4.327 -0.083,-6.499c-0.505,-6.17 -1.947,-13.446 -1.848,-16.927c0.055,-1.945 1.83,-3.953 2.173,-5.175c0.194,-0.693 -0.014,-1.667 -0.118,-2.155" style="fill:none;stroke:#000;stroke-width:1px;"/></g><g id="Ear"><path d="M73.207,108.527c0.866,-0.148 1.568,-2.389 1.565,-3.74c-0.007,-3.173 -1.173,-10.416 -1.654,-16.717c-0.24,-3.16 0.172,-6.419 0.023,-8.132c-0.173,-1.998 -0.433,-4.191 -1.044,-5.924c-0.575,-1.63 -1.716,-3.476 -2.622,-4.472c-0.715,-0.787 -1.825,-1.323 -2.813,-1.507c-0.987,-0.184 -2.26,-0.134 -3.114,0.402c-0.854,0.535 -1.507,1.775 -2.009,2.813c-0.502,1.038 -0.816,2.243 -1.004,3.415c-0.218,1.356 -0.335,3.382 -0.302,4.722c0.028,1.117 0.368,2.243 0.502,3.315c0.13,1.035 0.185,2.143 0.302,3.114c0.109,0.907 0.302,1.804 0.402,2.712c0.117,1.072 0.05,2.579 0.301,3.717c0.24,1.087 0.77,2.177 1.206,3.115c0.404,0.87 0.88,1.709 1.406,2.511c0.703,1.072 1.942,2.618 2.813,3.918c0.847,1.265 1.404,2.758 2.411,3.881c1.007,1.123 2.765,3.004 3.631,2.857Z" style="fill:#ffdaba;"/><clipPath id="_clip4"><path d="M73.207,108.527c0.866,-0.148 1.568,-2.389 1.565,-3.74c-0.007,-3.173 -1.173,-10.416 -1.654,-16.717c-0.24,-3.16 0.172,-6.419 0.023,-8.132c-0.173,-1.998 -0.433,-4.191 -1.044,-5.924c-0.575,-1.63 -1.716,-3.476 -2.622,-4.472c-0.715,-0.787 -1.825,-1.323 -2.813,-1.507c-0.987,-0.184 -2.26,-0.134 -3.114,0.402c-0.854,0.535 -1.507,1.775 -2.009,2.813c-0.502,1.038 -0.816,2.243 -1.004,3.415c-0.218,1.356 -0.335,3.382 -0.302,4.722c0.028,1.117 0.368,2.243 0.502,3.315c0.13,1.035 0.185,2.143 0.302,3.114c0.109,0.907 0.302,1.804 0.402,2.712c0.117,1.072 0.05,2.579 0.301,3.717c0.24,1.087 0.77,2.177 1.206,3.115c0.404,0.87 0.88,1.709 1.406,2.511c0.703,1.072 1.942,2.618 2.813,3.918c0.847,1.265 1.404,2.758 2.411,3.881c1.007,1.123 2.765,3.004 3.631,2.857Z"/></clipPath><g clip-path="url(#_clip4)"><path d="M60.393,75.762c0.285,-1.998 1.233,-4.647 1.905,-5.928c0.427,-0.815 1.394,-1.46 2.127,-1.759c0.7,-0.285 1.532,-0.207 2.269,-0.034c0.778,0.183 1.739,0.543 2.398,1.132c0.756,0.678 2.129,2.691 2.139,2.931c0.011,0.241 -1.342,-1.057 -2.078,-1.487c-0.751,-0.439 -1.691,-0.953 -2.427,-1.147c-0.642,-0.17 -1.362,-0.232 -1.991,-0.02c-0.661,0.221 -1.523,0.693 -1.975,1.35c-0.215,0.312 -1.266,2.267 -1.665,4.667c-0.084,0.503 -0.285,2.021 -0.237,3.721c0.051,1.824 0.513,4.226 0.644,5.981c0.054,0.72 0.531,3.339 0.567,4.663c0.007,0.251 0.047,1.655 0.403,2.985c0.535,1.995 1.453,4.121 1.414,4.311c-0.108,0.521 -2.177,-5.2 -2.181,-5.057c-0.028,0.885 -0.998,-10.516 -1.113,-10.25c-0.332,0.764 -0.483,-4.061 -0.199,-6.059Z" style="fill:#ffead8;"/></g><path d="M73.207,108.527c0.866,-0.148 1.568,-2.389 1.565,-3.74c-0.007,-3.173 -1.173,-10.416 -1.654,-16.717c-0.24,-3.16 0.172,-6.419 0.023,-8.132c-0.173,-1.998 -0.433,-4.191 -1.044,-5.924c-0.575,-1.63 -1.716,-3.476 -2.622,-4.472c-0.715,-0.787 -1.825,-1.323 -2.813,-1.507c-0.987,-0.184 -2.26,-0.134 -3.114,0.402c-0.854,0.535 -1.507,1.775 -2.009,2.813c-0.502,1.038 -0.816,2.243 -1.004,3.415c-0.218,1.356 -0.335,3.382 -0.302,4.722c0.028,1.117 0.368,2.243 0.502,3.315c0.13,1.035 0.185,2.143 0.302,3.114c0.109,0.907 0.302,1.804 0.402,2.712c0.117,1.072 0.05,2.579 0.301,3.717c0.24,1.087 0.77,2.177 1.206,3.115c0.404,0.87 0.88,1.709 1.406,2.511c0.703,1.072 1.942,2.618 2.813,3.918c0.847,1.265 1.404,2.758 2.411,3.881c1.007,1.123 2.765,3.004 3.631,2.857Z" style="fill:none;stroke:#000;stroke-width:1px;"/><path d="M63.245,91.566c-0.321,-1.814 -0.514,-5.696 -0.73,-8.028c-0.184,-1.989 -0.626,-4.063 -0.566,-5.966c0.058,-1.843 0.386,-4.382 0.926,-5.452c0.377,-0.747 1.498,-1.152 2.315,-0.97c0.48,0.107 1.8,1.126 2.828,2.244c1.844,2.006 3.412,4.741 2.31,5.344c-0.144,0.079 -1.651,-0.565 -2.845,-0.218c-1.011,0.294 -1.656,1.627 -1.83,1.983c-0.85,1.735 -1.714,5.132 -1.763,8.321c-0.011,0.689 -0.101,3.011 0.93,4.147c0.292,0.322 1.018,0.578 1.357,0.663c1.048,0.26 2.21,0.045 2.281,0.501c0.065,0.412 -1.453,1.493 -2.649,1.4c-0.665,-0.052 -1.303,-1.009 -1.364,-1.113c-0.595,-1.009 -1.019,-1.84 -1.2,-2.856Z" style="fill:#e5bf9e;"/><clipPath id="_clip5"><path d="M63.245,91.566c-0.321,-1.814 -0.514,-5.696 -0.73,-8.028c-0.184,-1.989 -0.626,-4.063 -0.566,-5.966c0.058,-1.843 0.386,-4.382 0.926,-5.452c0.377,-0.747 1.498,-1.152 2.315,-0.97c0.48,0.107 1.8,1.126 2.828,2.244c1.844,2.006 3.412,4.741 2.31,5.344c-0.144,0.079 -1.651,-0.565 -2.845,-0.218c-1.011,0.294 -1.656,1.627 -1.83,1.983c-0.85,1.735 -1.714,5.132 -1.763,8.321c-0.011,0.689 -0.101,3.011 0.93,4.147c0.292,0.322 1.018,0.578 1.357,0.663c1.048,0.26 2.21,0.045 2.281,0.501c0.065,0.412 -1.453,1.493 -2.649,1.4c-0.665,-0.052 -1.303,-1.009 -1.364,-1.113c-0.595,-1.009 -1.019,-1.84 -1.2,-2.856Z"/></clipPath><g clip-path="url(#_clip5)"><path d="M68.655,76.52c-0.162,-0.762 -2.9,-4.523 -3.82,-3.725c-0.168,0.146 -1.049,0.246 -1.178,0.751c-0.266,1.044 -0.522,2.688 -0.52,4.275c0.003,2.002 0.312,3.903 0.346,4.267c0.075,0.793 1.46,-3.788 2.322,-4.715c0.675,-0.727 3.012,-0.09 2.85,-0.853Z" style="fill:#ddb28c;"/></g><path d="M63.245,91.566c-0.321,-1.814 -0.514,-5.696 -0.73,-8.028c-0.184,-1.989 -0.626,-4.063 -0.566,-5.966c0.058,-1.843 0.386,-4.382 0.926,-5.452c0.377,-0.747 1.498,-1.152 2.315,-0.97c0.48,0.107 1.8,1.126 2.828,2.244c1.844,2.006 3.412,4.741 2.31,5.344c-0.144,0.079 -1.651,-0.565 -2.845,-0.218c-1.011,0.294 -1.656,1.627 -1.83,1.983c-0.85,1.735 -1.714,5.132 -1.763,8.321c-0.011,0.689 -0.101,3.011 0.93,4.147c0.292,0.322 1.018,0.578 1.357,0.663c1.048,0.26 2.21,0.045 2.281,0.501c0.065,0.412 -1.453,1.493 -2.649,1.4c-0.665,-0.052 -1.303,-1.009 -1.364,-1.113c-0.595,-1.009 -1.019,-1.84 -1.2,-2.856Z" style="fill:none;stroke:#000;stroke-width:1px;"/><path d="M65.083,91.734c0.491,1.36 2.974,1.346 4.073,1.492c0.857,0.113 2.118,0.148 2.52,-0.618c0.26,-0.494 -0.93,-1.169 -0.935,-2.524c-0.002,-0.673 1.306,-1.259 1.249,-1.848c-0.067,-0.677 -0.141,-1.919 -0.029,-3.34c0.08,-1.005 0.134,-2.443 0.155,-3.138c0.016,-0.502 -0.78,-0.875 -1.314,-1.04c-0.562,-0.173 -1.448,-0.315 -2.058,0c-0.866,0.447 -2.703,1.378 -3.137,2.684c-0.61,1.836 -1.115,6.695 -0.524,8.332Z" style="fill:#e5bf9e;"/><clipPath id="_clip6"><path d="M65.083,91.734c0.491,1.36 2.974,1.346 4.073,1.492c0.857,0.113 2.118,0.148 2.52,-0.618c0.26,-0.494 -0.93,-1.169 -0.935,-2.524c-0.002,-0.673 1.306,-1.259 1.249,-1.848c-0.067,-0.677 -0.141,-1.919 -0.029,-3.34c0.08,-1.005 0.134,-2.443 0.155,-3.138c0.016,-0.502 -0.78,-0.875 -1.314,-1.04c-0.562,-0.173 -1.448,-0.315 -2.058,0c-0.866,0.447 -2.703,1.378 -3.137,2.684c-0.61,1.836 -1.115,6.695 -0.524,8.332Z"/></clipPath><g clip-path="url(#_clip6)"><path d="M71.938,85.225c-0.393,0.022 -1.193,0.044 -1.673,0.658c-0.228,0.291 -0.316,1.722 -0.521,1.955c-0.657,0.745 -1.629,1.1 -1.743,1.861c-0.115,0.762 0.35,2.092 1.056,2.708c0.706,0.616 2.478,1.847 3.179,0.987c0.721,-0.886 1.2,-4.942 1.151,-6.304c-0.029,-0.786 -0.869,-1.897 -1.449,-1.865Z" style="fill:#ddb28c;"/></g><path d="M65.083,91.734c0.491,1.36 2.974,1.346 4.073,1.492c0.857,0.113 2.118,0.148 2.52,-0.618c0.26,-0.494 -0.93,-1.169 -0.935,-2.524c-0.002,-0.673 1.306,-1.259 1.249,-1.848c-0.067,-0.677 -0.141,-1.919 -0.029,-3.34c0.08,-1.005 0.134,-2.443 0.155,-3.138c0.016,-0.502 -0.78,-0.875 -1.314,-1.04c-0.562,-0.173 -1.448,-0.315 -2.058,0c-0.866,0.447 -2.703,1.378 -3.137,2.684c-0.61,1.836 -1.115,6.695 -0.524,8.332Z" style="fill:none;stroke:#000;stroke-width:1px;"/><path d="M67.338,98.846c0.772,-0.754 2.389,-2.465 2.63,-3.069c0.316,-0.791 2.072,0.445 2.209,1.286c0.186,1.142 -0.148,5.497 -1.094,5.566c-1.071,0.079 -2.153,-1.509 -2.4,-1.643c-0.882,-0.481 -1.944,-1.555 -1.345,-2.14Z" style="fill:#e5bf9e;stroke:#000;stroke-width:1px;"/></g><path id="Hair" d="M73.228,80.061c0,0 -0.265,-3.147 -1.195,-6.224c-0.576,-1.905 -1.709,-2.786 -1.909,-4.212c-0.514,-3.67 -0.342,-7.976 -0.033,-11.945c0.313,-4.023 1.146,-8.151 1.911,-12.193c0.864,-4.565 1.304,-10.57 3.276,-15.196c1.971,-4.625 5.115,-9.378 8.553,-12.557c3.358,-3.104 7.795,-4.903 12.075,-6.514c2.766,-1.042 7.827,-3.986 13.459,-5.897c4.527,-1.536 9.575,-3.291 13.971,-4.229c5.928,-1.266 11.914,-1.302 14.411,-0.769c8.71,1.859 16.866,5.905 20.154,8.646c1.434,1.196 3.485,2.934 5.182,4.811c2.899,3.209 5.208,6.708 5.208,6.708c0,0 -1.289,-1.947 -4.905,-3.325c-2.344,-0.893 -6.086,-0.938 -8.013,-0.608c-3.685,0.631 -22.003,-1.845 -22.722,-1.969c-11.472,-1.979 -11.332,-5.893 -23.147,-5.658c-10.497,0.209 -15.912,7.866 -17.502,9.368c-2.942,2.78 -5.202,6.87 -6.897,9.991c-1.485,2.733 -2.669,6.142 -3.276,8.735c-0.519,2.219 -0.199,4.553 -0.364,6.825c-0.212,2.927 -0.531,7.84 -0.91,10.737c-0.293,2.241 -0.74,4.47 -1.365,6.642c-1.221,4.246 -5.962,18.833 -5.962,18.833Z" style="fill:#b5a09b;stroke:#000;stroke-width:1px;"/><path id="Beard" d="M73.097,83.428c0,0 0.881,6.837 1.638,10.195c1.005,4.462 2.825,12.746 4.395,16.576c1.029,2.51 2.914,4.696 5.023,6.404c3.118,2.525 10.757,6.913 13.687,8.748c1.272,0.796 3.375,3.032 3.893,2.261c0.518,-0.772 -0.884,-5.065 -0.785,-6.889c0.078,-1.424 0.529,-2.907 1.383,-4.05c0.946,-1.266 2.525,-2.98 4.293,-3.545c2.517,-0.803 7.385,-0.836 10.812,-1.278c3.256,-0.42 6.946,-1.372 9.752,-1.374c2.404,-0.001 5.025,1.002 7.084,1.362c1.75,0.307 3.496,0.677 5.269,0.801c1.886,0.131 4.398,-0.024 6.05,-0.013c1.286,0.009 2.596,-0.173 3.857,0.081c1.448,0.291 3.407,0.989 4.829,1.666c1.326,0.631 2.511,1.53 3.699,2.395c1.309,0.953 3.302,2.167 4.158,3.323c0.742,1.004 0.832,2.376 0.977,3.616c0.147,1.253 -1.371,3.635 -0.097,3.905c1.296,0.274 5.795,-1.389 7.87,-2.261c1.678,-0.705 3.613,-2.024 4.581,-2.972c0.708,-0.695 1.224,-2.976 1.222,-2.715c-0.002,0.261 -0.576,2.952 -1.235,4.284c-0.956,1.935 -3.44,5.496 -4.504,7.328c-0.69,1.187 -1.278,2.431 -1.884,3.662c-0.753,1.532 -1.658,3.735 -2.637,5.526c-1.08,1.976 -2.72,4.482 -3.842,6.331c-0.964,1.586 -1.846,3.225 -2.894,4.757c-1.098,1.608 -2.831,3.708 -3.699,4.887c-0.525,0.712 -1.064,1.42 -1.508,2.186c-0.616,1.06 -1.41,2.812 -2.188,4.179c-0.836,1.468 -1.874,3.45 -2.827,4.629c-0.794,0.981 -1.815,1.788 -2.894,2.443c-1.446,0.879 -3.921,2.368 -5.786,2.829c-1.748,0.432 -3.686,-0.139 -5.401,-0.064c-1.636,0.071 -3.354,0.407 -4.886,0.514c-1.433,0.1 -2.879,0.276 -4.308,0.129c-1.66,-0.172 -3.787,-0.701 -5.657,-1.158c-1.886,-0.461 -3.863,-0.818 -5.658,-1.607c-2.512,-1.104 -6.577,-3.243 -9.413,-5.017c-2.673,-1.672 -5.145,-3.65 -7.602,-5.626c-2.791,-2.243 -6.597,-5.19 -9.142,-7.835c-2.336,-2.428 -4.571,-5.66 -6.128,-8.037c-1.28,-1.955 -2.334,-4.064 -3.215,-6.229c-1.038,-2.551 -2.176,-6.131 -3.014,-9.083c-0.805,-2.84 -1.54,-5.888 -2.009,-8.627c-0.441,-2.578 -0.586,-5.417 -0.803,-7.806c-0.198,-2.174 -0.451,-4.347 -0.503,-6.53c-0.067,-2.829 0.167,-7.311 0.101,-10.448c-0.06,-2.795 -0.491,-6.396 -0.5,-8.372c-0.005,-1.17 0.446,-3.481 0.446,-3.481Z" style="fill:#9f8580;"/><clipPath id="_clip7"><path d="M73.097,83.428c0,0 0.881,6.837 1.638,10.195c1.005,4.462 2.825,12.746 4.395,16.576c1.029,2.51 2.914,4.696 5.023,6.404c3.118,2.525 10.757,6.913 13.687,8.748c1.272,0.796 3.375,3.032 3.893,2.261c0.518,-0.772 -0.884,-5.065 -0.785,-6.889c0.078,-1.424 0.529,-2.907 1.383,-4.05c0.946,-1.266 2.525,-2.98 4.293,-3.545c2.517,-0.803 7.385,-0.836 10.812,-1.278c3.256,-0.42 6.946,-1.372 9.752,-1.374c2.404,-0.001 5.025,1.002 7.084,1.362c1.75,0.307 3.496,0.677 5.269,0.801c1.886,0.131 4.398,-0.024 6.05,-0.013c1.286,0.009 2.596,-0.173 3.857,0.081c1.448,0.291 3.407,0.989 4.829,1.666c1.326,0.631 2.511,1.53 3.699,2.395c1.309,0.953 3.302,2.167 4.158,3.323c0.742,1.004 0.832,2.376 0.977,3.616c0.147,1.253 -1.371,3.635 -0.097,3.905c1.296,0.274 5.795,-1.389 7.87,-2.261c1.678,-0.705 3.613,-2.024 4.581,-2.972c0.708,-0.695 1.224,-2.976 1.222,-2.715c-0.002,0.261 -0.576,2.952 -1.235,4.284c-0.956,1.935 -3.44,5.496 -4.504,7.328c-0.69,1.187 -1.278,2.431 -1.884,3.662c-0.753,1.532 -1.658,3.735 -2.637,5.526c-1.08,1.976 -2.72,4.482 -3.842,6.331c-0.964,1.586 -1.846,3.225 -2.894,4.757c-1.098,1.608 -2.831,3.708 -3.699,4.887c-0.525,0.712 -1.064,1.42 -1.508,2.186c-0.616,1.06 -1.41,2.812 -2.188,4.179c-0.836,1.468 -1.874,3.45 -2.827,4.629c-0.794,0.981 -1.815,1.788 -2.894,2.443c-1.446,0.879 -3.921,2.368 -5.786,2.829c-1.748,0.432 -3.686,-0.139 -5.401,-0.064c-1.636,0.071 -3.354,0.407 -4.886,0.514c-1.433,0.1 -2.879,0.276 -4.308,0.129c-1.66,-0.172 -3.787,-0.701 -5.657,-1.158c-1.886,-0.461 -3.863,-0.818 -5.658,-1.607c-2.512,-1.104 -6.577,-3.243 -9.413,-5.017c-2.673,-1.672 -5.145,-3.65 -7.602,-5.626c-2.791,-2.243 -6.597,-5.19 -9.142,-7.835c-2.336,-2.428 -4.571,-5.66 -6.128,-8.037c-1.28,-1.955 -2.334,-4.064 -3.215,-6.229c-1.038,-2.551 -2.176,-6.131 -3.014,-9.083c-0.805,-2.84 -1.54,-5.888 -2.009,-8.627c-0.441,-2.578 -0.586,-5.417 -0.803,-7.806c-0.198,-2.174 -0.451,-4.347 -0.503,-6.53c-0.067,-2.829 0.167,-7.311 0.101,-10.448c-0.06,-2.795 -0.491,-6.396 -0.5,-8.372c-0.005,-1.17 0.446,-3.481 0.446,-3.481Z"/></clipPath><g clip-path="url(#_clip7)"><path d="M76.502,129.356c0.771,0.378 16.22,19.938 20.981,24.02c4.529,3.885 11.199,7.282 15.342,9.224c2.963,1.389 6.277,2.152 9.513,2.427c3.236,0.275 7.023,-0.76 9.903,-0.777c2.47,-0.013 4.984,1.246 7.379,0.68c2.395,-0.566 5.211,-2.217 6.991,-4.078c1.78,-1.861 2.298,-4.816 3.689,-7.087c1.894,-3.091 5.171,-7.6 7.671,-11.457c2.621,-4.046 6.532,-9.96 8.058,-12.816c0.701,-1.311 0.796,-2.866 1.101,-4.32c0.399,-1.905 -0.201,-5.221 1.292,-7.111c1.512,-1.913 5.449,-4.013 7.779,-4.369c2.172,-0.332 6.202,0.036 6.202,2.233c0,5.34 -1.528,20.799 -6.202,29.807c-4.838,9.326 -16.79,20.812 -22.828,26.152c-3.654,3.232 -8.549,5.358 -13.398,5.888c-6.759,0.739 -18.59,1.327 -27.15,-1.456c-8.56,-2.784 -18.377,-7.7 -24.212,-15.244c-6.053,-7.826 -15.157,-33.209 -12.111,-31.716Z" style="fill:#876d67;"/><path d="M111.957,134.599c0,0 9.182,7.186 12.712,8.222c2.848,0.836 11.415,1.486 13.669,1.565c4.848,0.17 8.962,-2.812 8.962,-2.812c0,0 -2.339,7.811 -5.674,9.095c-2.055,0.792 -5.224,0.109 -8.672,-0.178c-2.607,-0.217 -5.543,0.176 -7.309,-0.575c-1.418,-0.603 -2.68,-2.471 -4.142,-3.93c-2.696,-2.692 -9.546,-11.387 -9.546,-11.387Z" style="fill:#876d67;"/><path d="M103.316,121.136c0.413,-0.652 0.48,-3.233 1.986,-4.964c1.622,-1.865 4.361,-2.315 6.262,-2.586c2.802,-0.4 5.885,-0.315 8.49,-0.487c2.38,-0.158 4.756,-0.712 7.136,-0.549c2.611,0.178 7.545,0.338 8.534,1.619c0.521,0.676 -0.189,2.061 -0.831,3.443c-0.625,1.347 -0.993,1.91 -1.573,2.328c-1.227,0.886 -4.584,-1.699 -6.697,-1.915c-1.995,-0.204 -4.113,0.418 -5.984,0.618c-1.748,0.187 -3.528,0.469 -5.243,0.582c-1.679,0.111 -3.544,-0.075 -5.049,0.098c-1.352,0.155 -2.804,0.637 -3.976,0.939c-1.025,0.265 -3.596,1.73 -3.055,0.874Z" style="fill:#876d67;"/><path d="M141.32,120.026c-0.463,-0.465 -0.487,-1.29 -0.629,-2.378c-0.143,-1.089 -0.404,-2.44 0.243,-2.905c0.516,-0.371 2.356,-0.375 3.457,-0.382c1.655,-0.011 3.222,-0.029 4.727,0.338c2.602,0.634 4.028,1.197 5.815,2.262c1.874,1.117 4.483,2.967 5.431,4.44c0.795,1.235 0.2,3.396 0.26,4.398c0.032,0.539 0.626,1.726 0.098,1.617c-0.668,-0.139 -2.68,-1.738 -4.107,-2.448c-1.55,-0.77 -3.501,-1.402 -5.19,-2.175c-1.675,-0.766 -3.262,-2.001 -4.946,-2.462c-1.662,-0.455 -4.235,0.626 -5.159,-0.305Z" style="fill:#876d67;"/></g><path d="M73.097,83.428c0,0 0.881,6.837 1.638,10.195c1.005,4.462 2.825,12.746 4.395,16.576c1.029,2.51 2.914,4.696 5.023,6.404c3.118,2.525 10.757,6.913 13.687,8.748c1.272,0.796 3.375,3.032 3.893,2.261c0.518,-0.772 -0.884,-5.065 -0.785,-6.889c0.078,-1.424 0.529,-2.907 1.383,-4.05c0.946,-1.266 2.525,-2.98 4.293,-3.545c2.517,-0.803 7.385,-0.836 10.812,-1.278c3.256,-0.42 6.946,-1.372 9.752,-1.374c2.404,-0.001 5.025,1.002 7.084,1.362c1.75,0.307 3.496,0.677 5.269,0.801c1.886,0.131 4.398,-0.024 6.05,-0.013c1.286,0.009 2.596,-0.173 3.857,0.081c1.448,0.291 3.407,0.989 4.829,1.666c1.326,0.631 2.511,1.53 3.699,2.395c1.309,0.953 3.302,2.167 4.158,3.323c0.742,1.004 0.832,2.376 0.977,3.616c0.147,1.253 -1.371,3.635 -0.097,3.905c1.296,0.274 5.795,-1.389 7.87,-2.261c1.678,-0.705 3.613,-2.024 4.581,-2.972c0.708,-0.695 1.224,-2.976 1.222,-2.715c-0.002,0.261 -0.576,2.952 -1.235,4.284c-0.956,1.935 -3.44,5.496 -4.504,7.328c-0.69,1.187 -1.278,2.431 -1.884,3.662c-0.753,1.532 -1.658,3.735 -2.637,5.526c-1.08,1.976 -2.72,4.482 -3.842,6.331c-0.964,1.586 -1.846,3.225 -2.894,4.757c-1.098,1.608 -2.831,3.708 -3.699,4.887c-0.525,0.712 -1.064,1.42 -1.508,2.186c-0.616,1.06 -1.41,2.812 -2.188,4.179c-0.836,1.468 -1.874,3.45 -2.827,4.629c-0.794,0.981 -1.815,1.788 -2.894,2.443c-1.446,0.879 -3.921,2.368 -5.786,2.829c-1.748,0.432 -3.686,-0.139 -5.401,-0.064c-1.636,0.071 -3.354,0.407 -4.886,0.514c-1.433,0.1 -2.879,0.276 -4.308,0.129c-1.66,-0.172 -3.787,-0.701 -5.657,-1.158c-1.886,-0.461 -3.863,-0.818 -5.658,-1.607c-2.512,-1.104 -6.577,-3.243 -9.413,-5.017c-2.673,-1.672 -5.145,-3.65 -7.602,-5.626c-2.791,-2.243 -6.597,-5.19 -9.142,-7.835c-2.336,-2.428 -4.571,-5.66 -6.128,-8.037c-1.28,-1.955 -2.334,-4.064 -3.215,-6.229c-1.038,-2.551 -2.176,-6.131 -3.014,-9.083c-0.805,-2.84 -1.54,-5.888 -2.009,-8.627c-0.441,-2.578 -0.586,-5.417 -0.803,-7.806c-0.198,-2.174 -0.451,-4.347 -0.503,-6.53c-0.067,-2.829 0.167,-7.311 0.101,-10.448c-0.06,-2.795 -0.491,-6.396 -0.5,-8.372c-0.005,-1.17 0.446,-3.481 0.446,-3.481Z" style="fill:none;stroke:#000;stroke-width:1px;"/><g id="Mouth"><path d="M106.943,122.284c-0.69,1.042 4.592,3.958 6.558,5.929c1.855,1.86 3.527,4.454 5.235,5.894c1.456,1.227 3.168,2.267 5.012,2.744c2.565,0.664 6.924,0.97 10.378,1.241c3.441,0.269 7.747,0.978 10.347,0.383c2.135,-0.489 3.704,-2.402 5.249,-3.954c1.593,-1.6 3.4,-4.369 4.308,-5.647c0.448,-0.63 1.468,-1.597 1.141,-2.019c-2.852,-3.678 -20.484,-2.705 -28.522,-3.467c-6.549,-0.62 -18.416,-3.049 -19.706,-1.104Z" style="fill:#ffb5a6;stroke:#000;stroke-width:1px;"/><path d="M115.909,129.386c0,0 4.458,4.748 6.495,5.893c1.687,0.948 3.803,0.737 5.724,0.975c2.471,0.305 6.535,0.651 9.1,0.856c2.095,0.168 4.495,0.87 6.293,0.374c1.798,-0.497 4.495,-3.35 4.495,-3.35c0,0 -3.247,1.986 -5.046,2.289c-1.799,0.304 -3.833,-0.315 -5.75,-0.466c-2.421,-0.191 -6.547,-0.476 -8.774,-0.678c-1.535,-0.14 -3.229,-0.033 -4.591,-0.536c-1.363,-0.504 -2.377,-1.672 -3.582,-2.484c-1.324,-0.893 -4.364,-2.873 -4.364,-2.873Z" style="fill:#ffdede;"/><path d="M107.503,121.891c1.044,-0.591 9.055,-0.712 12.21,-1.011c2.244,-0.212 4.474,-0.991 6.719,-0.779c2.7,0.256 6.46,2.034 9.477,2.312c2.872,0.264 7.021,-0.83 8.628,-0.647c2.296,0.261 4.442,1.734 6.461,2.527c3.144,1.234 4.303,1.709 4.244,2.825c-0.123,2.277 -16.07,1.544 -23.036,1.095c-6.366,-0.411 -14.641,-2.738 -18.759,-3.792c-2.086,-0.534 -6.988,-1.94 -5.944,-2.53Z" style="fill:#ffb5a6;stroke:#000;stroke-width:1px;"/><path d="M106.943,122.292c-0.034,-1.021 6.84,-0.472 10.244,-0.198c4.781,0.384 13.068,2.041 18.444,2.502c4.588,0.394 10.554,-0.192 13.814,0.265c2.065,0.29 6.306,1.25 5.746,2.479c-0.25,0.549 -2.182,1.2 -3.704,2.072c-1.887,1.08 -3.549,2.38 -5.405,2.824c-3.462,0.828 -7.813,0.6 -11.666,0.073c-4.947,-0.677 -13.433,-2.464 -18.011,-4.134c-3.489,-1.272 -9.444,-5.375 -9.462,-5.883Z" style="fill:#312725;"/><clipPath id="_clip8"><path d="M106.943,122.292c-0.034,-1.021 6.84,-0.472 10.244,-0.198c4.781,0.384 13.068,2.041 18.444,2.502c4.588,0.394 10.554,-0.192 13.814,0.265c2.065,0.29 6.306,1.25 5.746,2.479c-0.25,0.549 -2.182,1.2 -3.704,2.072c-1.887,1.08 -3.549,2.38 -5.405,2.824c-3.462,0.828 -7.813,0.6 -11.666,0.073c-4.947,-0.677 -13.433,-2.464 -18.011,-4.134c-3.489,-1.272 -9.444,-5.375 -9.462,-5.883Z"/></clipPath><g clip-path="url(#_clip8)"><path d="M110.572,125.35c0.637,0.043 -1.445,-1.219 -1.165,-2.135c0.242,-0.789 1.959,-1.424 1.612,-1.827c-0.348,-0.402 -2.79,-0.848 -3.695,-0.587c-0.887,0.256 -2.274,1.404 -1.738,2.155c0.541,0.758 4.349,2.351 4.986,2.394Z" style="fill:#1f1917;"/><path d="M148.995,131.275c-0.763,0.04 2.321,-2.28 2.277,-3.449c-0.031,-0.824 -3.096,-3.399 -2.623,-3.799c0.474,-0.399 4.264,0.809 5.465,1.402c0.827,0.409 2.346,1.461 1.738,2.155c-0.853,0.974 -6.094,3.651 -6.857,3.691Z" style="fill:#1f1917;"/><path d="M112.41,122.037c-0.108,0.794 1.115,2.331 2.206,2.807c1.57,0.686 5.177,1.088 7.217,1.306c1.665,0.177 3.482,-0.29 5.022,0c1.494,0.281 2.723,1.462 4.218,1.737c2.074,0.381 6.292,0.459 8.23,0.551c1.13,0.053 2.288,0 3.394,0c1.08,0 2.341,0 3.241,0c0.72,0 1.571,0.414 2.16,0c0.782,-0.551 2.545,-2.39 2.533,-3.304c-0.013,-0.913 -1.488,-2.02 -2.61,-2.18c-3.665,-0.521 -13.921,-0.467 -19.38,-0.945c-4.487,-0.394 -10.669,-1.932 -13.374,-1.927c-1.154,0.002 -2.748,1.162 -2.857,1.955Z" style="fill:#b5a09b;stroke:#000;stroke-width:1px;"/><path d="M118.75,129.799c-0.844,-0.692 -0.646,-1.172 1.322,-1.277c0.31,-0.016 3.816,0.412 3.973,0.453c0.482,0.126 5.911,1.284 6.3,1.274c3.062,-0.075 4.638,1.348 7.027,1.583c2.394,0.235 5.915,-0.477 7.334,-0.17c0.76,0.164 1.948,1.88 1.182,2.01c-2.169,0.37 -9.672,0.851 -14.195,0.206c-4.478,-0.639 -11.625,-2.997 -12.943,-4.079Z" style="fill:#ff8269;stroke:#000;stroke-width:1px;"/><path d="M111.772,121.841c0.318,-0.067 1.009,0.3 1.256,0.678c0.246,0.379 0.211,1.14 0.225,1.591c0.011,0.374 0.055,0.919 -0.143,1.114c-0.197,0.196 -0.736,0.203 -1.04,0.058c-0.304,-0.145 -0.634,-0.553 -0.786,-0.93c-0.159,-0.393 -0.247,-1.012 -0.165,-1.431c0.08,-0.413 0.335,-1.013 0.653,-1.08Z" style="fill:#6a5a56;stroke:#000;stroke-width:1px;"/><path d="M114.158,122.423c0.417,-0.088 1.354,0.399 1.646,0.889c0.292,0.489 0.09,1.457 0.109,2.048c0.015,0.499 0.257,1.185 0,1.497c-0.258,0.311 -1.118,0.514 -1.548,0.373c-0.429,-0.141 -0.871,-0.711 -1.03,-1.219c-0.177,-0.565 -0.17,-1.574 -0.033,-2.172c0.123,-0.538 0.439,-1.328 0.856,-1.416Z" style="fill:#8a736e;stroke:#000;stroke-width:1px;"/><path d="M117.434,122.967c-0.337,0.103 -1.124,0.615 -1.403,1.029c-0.276,0.409 -0.27,1.05 -0.27,1.455c0,0.337 0.159,0.656 0.27,0.975c0.165,0.475 0.39,1.572 0.72,1.873c0.31,0.284 0.859,0.064 1.259,-0.065c0.464,-0.15 1.291,-0.304 1.523,-0.834c0.247,-0.565 0.205,-1.885 -0.041,-2.556c-0.237,-0.643 -1.098,-1.153 -1.441,-1.466c-0.182,-0.166 -0.38,-0.483 -0.617,-0.411Z" style="fill:#d2c8c6;stroke:#000;stroke-width:1px;"/><path d="M121.714,129.345c-0.523,0.014 -1.182,-0.238 -1.518,-0.582c-0.335,-0.345 -0.435,-0.968 -0.497,-1.487c-0.083,-0.694 -0.041,-2.115 0,-2.676c0.017,-0.244 0.081,-0.51 0.245,-0.691c0.245,-0.274 0.764,-0.919 1.23,-0.953c0.466,-0.033 1.112,0.398 1.567,0.75c0.455,0.353 0.961,0.882 1.163,1.366c0.198,0.471 0.077,1.056 0.051,1.533c-0.025,0.449 -0.103,0.986 -0.207,1.332c-0.082,0.271 -0.184,0.58 -0.417,0.741c-0.339,0.235 -1.095,0.653 -1.617,0.667Z" style="fill:#fff;stroke:#000;stroke-width:1px;"/><path d="M126.649,129.345c-0.541,-0.105 -1.339,-0.583 -1.777,-0.907c-0.361,-0.267 -0.734,-0.607 -0.857,-1.038c-0.142,-0.504 -0.126,-1.483 0,-1.984c0.104,-0.41 0.458,-0.721 0.758,-1.02c0.302,-0.302 0.719,-0.626 1.053,-0.79c0.291,-0.143 0.668,-0.353 0.953,-0.198c0.378,0.207 1.005,0.979 1.319,1.436c0.267,0.391 0.483,0.839 0.559,1.306c0.082,0.507 0.024,1.249 -0.066,1.735c-0.077,0.419 -0.151,0.941 -0.475,1.185c-0.323,0.243 -0.978,0.371 -1.467,0.275Z" style="fill:#fff;stroke:#000;stroke-width:1px;"/><path d="M128.697,125.875c0.192,-0.489 0.777,-0.788 1.191,-1.031c0.392,-0.229 0.841,-0.434 1.294,-0.422c0.504,0.013 1.18,0.263 1.731,0.502c0.569,0.248 1.333,0.437 1.684,0.985c0.374,0.585 0.649,1.669 0.562,2.529c-0.096,0.953 -0.68,2.595 -1.141,3.189c-0.342,0.44 -1.071,0.372 -1.628,0.375c-0.615,0.003 -1.501,-0.176 -2.058,-0.358c-0.469,-0.153 -1,-0.331 -1.286,-0.733c-0.334,-0.47 -0.669,-1.354 -0.72,-2.088c-0.058,-0.839 0.11,-2.284 0.371,-2.948Z" style="fill:#fff;stroke:#000;stroke-width:1px;"/><path d="M134.77,131.438c0.314,0.716 1.651,0.804 2.292,0.961c0.502,0.123 1.109,0.251 1.551,-0.017c0.536,-0.326 1.238,-1.219 1.668,-1.938c0.43,-0.72 0.758,-1.7 0.913,-2.379c0.125,-0.553 0.374,-1.263 0.013,-1.7c-0.409,-0.494 -1.651,-1.267 -2.467,-1.267c-0.816,0 -1.833,0.766 -2.427,1.267c-0.53,0.447 -0.936,1.076 -1.138,1.739c-0.257,0.845 -0.72,2.618 -0.405,3.334Z" style="fill:#fff;stroke:#000;stroke-width:1px;"/><path d="M143.946,125.434c-0.512,0.292 -1.9,1.475 -2.551,2.461c-0.666,1.008 -1.443,2.95 -1.443,3.59c0,0.488 0.964,0.347 1.443,0.253c0.514,-0.101 1.262,-0.372 1.641,-0.86c0.456,-0.587 0.857,-1.876 1.096,-2.665c0.202,-0.67 0.368,-1.608 0.337,-2.071c-0.02,-0.292 -0.268,-0.853 -0.523,-0.708Z" style="fill:#fff;stroke:#000;stroke-width:1px;"/><path d="M147.582,125.945c-0.402,-0.039 -2.01,1.21 -2.633,1.739c-0.46,0.389 -0.79,0.917 -1.103,1.431c-0.336,0.552 -0.888,1.427 -0.911,1.88c-0.019,0.38 0.462,0.669 0.776,0.837c0.314,0.168 0.795,0.172 1.106,0.172c0.261,0 0.599,0.03 0.764,-0.172c0.276,-0.338 0.61,-1.232 0.895,-1.857c0.297,-0.652 0.702,-1.383 0.886,-2.054c0.176,-0.639 0.623,-1.936 0.22,-1.976Z" style="fill:#d2c8c6;stroke:#000;stroke-width:1px;"/><path d="M148.607,127.154c-0.164,-0.141 -1.053,0.726 -1.405,1.242c-0.415,0.61 -0.893,1.872 -1.089,2.415c-0.095,0.266 -0.261,0.809 -0.085,0.843c0.177,0.034 0.855,-0.314 1.147,-0.641c0.359,-0.401 0.774,-1.132 1.011,-1.769c0.239,-0.643 0.585,-1.949 0.421,-2.09Z" style="fill:#8a736e;stroke:#000;stroke-width:1px;"/></g><path d="M106.943,122.292c-0.034,-1.021 6.84,-0.472 10.244,-0.198c4.781,0.384 13.068,2.041 18.444,2.502c4.588,0.394 10.554,-0.192 13.814,0.265c2.065,0.29 6.306,1.25 5.746,2.479c-0.25,0.549 -2.182,1.2 -3.704,2.072c-1.887,1.08 -3.549,2.38 -5.405,2.824c-3.462,0.828 -7.813,0.6 -11.666,0.073c-4.947,-0.677 -13.433,-2.464 -18.011,-4.134c-3.489,-1.272 -9.444,-5.375 -9.462,-5.883Z" style="fill:none;stroke:#000;stroke-width:1px;"/></g><g id="Nose"><path d="M142.675,111.07c0.027,0.184 2.817,0.327 3.926,0.339c0.914,0.009 1.979,-0.016 2.728,-0.27c0.685,-0.232 1.728,-1.007 1.77,-1.254c0.042,-0.248 -1.009,-0.277 -1.518,-0.231c-0.777,0.071 -2.094,0.44 -3.142,0.655c-1.151,0.236 -3.791,0.578 -3.764,0.761Z" style="fill:#29201f;"/><path d="M127.712,108.034c-0.463,0.26 1.739,1.11 2.719,1.384c1.013,0.283 2.315,0.263 3.361,0.316c0.969,0.049 3.009,0.313 2.912,0c-0.097,-0.313 -2.196,-1.632 -3.495,-1.877c-1.499,-0.284 -5.034,-0.084 -5.497,0.177Z" style="fill:#29201f;"/><path d="M122.302,100.188c-0.354,0.391 -1.063,1.172 -1.276,1.892c-0.212,0.721 -0.201,1.644 0,2.428c0.206,0.803 0.636,1.77 1.235,2.387c0.598,0.617 1.46,1.243 2.356,1.316c1.585,0.131 5.464,-0.555 7.149,-0.534c1.012,0.012 2.14,0.315 2.963,0.658c0.744,0.31 1.394,0.839 1.975,1.399c0.805,0.777 2.625,1.255 3.587,1.356c2.53,0.265 3.679,-0.383 4.862,-0.554c1.644,-0.238 3.927,-0.842 4.893,-0.95c0.313,-0.036 0.703,0.187 0.898,0.299" style="fill:none;stroke:#000;stroke-width:1px;"/><path d="M149.699,76.41c-1.683,1.251 -1.698,3.315 -1.495,6.398c0.297,4.504 1.873,10.016 2.465,11.429c1.614,3.848 4.16,6.887 4.94,8.776c0.307,0.745 0.411,1.633 0.482,2.371c0.066,0.683 -0.003,1.469 -0.058,2.058c-0.091,0.979 -1.127,2.198 -1.736,2.672" style="fill:none;stroke:#000;stroke-width:1px;"/></g><g id="Eyebrows"><path d="M135.926,71.942c0.474,-0.505 0.971,-3.134 -0.144,-4.139c-1.782,-1.608 -6.821,-4.001 -10.548,-5.506c-3.784,-1.528 -8.506,-2.868 -12.156,-3.664c-3.174,-0.691 -6.529,-1.645 -9.744,-1.107c-3.483,0.582 -9.56,3.819 -11.151,4.6c-0.464,0.229 1.979,-0.243 1.607,0.086c-0.429,0.379 -3.767,1.835 -4.187,2.191c-0.394,0.334 1.876,-0.355 1.672,-0.055c-0.204,0.3 -2.636,1.509 -2.893,1.854c-0.245,0.329 1.188,-0.125 1.35,0.218c0.162,0.343 -0.724,1.289 -0.38,1.839c0.365,0.581 1.496,1.723 2.566,1.651c1.435,-0.098 3.961,-1.64 6.043,-2.236c2.574,-0.736 6.944,-1.826 9.398,-2.181c1.75,-0.252 3.558,-0.083 5.326,0.055c1.862,0.145 3.951,0.354 5.85,0.818c2.497,0.609 6.73,2.09 9.13,2.835c1.757,0.546 3.895,1.179 5.272,1.636c1.012,0.336 2.515,1.611 2.989,1.105Z" style="fill:#433633;"/><clipPath id="_clip9"><path d="M135.926,71.942c0.474,-0.505 0.971,-3.134 -0.144,-4.139c-1.782,-1.608 -6.821,-4.001 -10.548,-5.506c-3.784,-1.528 -8.506,-2.868 -12.156,-3.664c-3.174,-0.691 -6.529,-1.645 -9.744,-1.107c-3.483,0.582 -9.56,3.819 -11.151,4.6c-0.464,0.229 1.979,-0.243 1.607,0.086c-0.429,0.379 -3.767,1.835 -4.187,2.191c-0.394,0.334 1.876,-0.355 1.672,-0.055c-0.204,0.3 -2.636,1.509 -2.893,1.854c-0.245,0.329 1.188,-0.125 1.35,0.218c0.162,0.343 -0.724,1.289 -0.38,1.839c0.365,0.581 1.496,1.723 2.566,1.651c1.435,-0.098 3.961,-1.64 6.043,-2.236c2.574,-0.736 6.944,-1.826 9.398,-2.181c1.75,-0.252 3.558,-0.083 5.326,0.055c1.862,0.145 3.951,0.354 5.85,0.818c2.497,0.609 6.73,2.09 9.13,2.835c1.757,0.546 3.895,1.179 5.272,1.636c1.012,0.336 2.515,1.611 2.989,1.105Z"/></clipPath><g clip-path="url(#_clip9)"><path d="M93.187,69.466c-0.706,-0.686 5.517,-4.521 8.235,-5.416c1.116,-0.368 2.498,-1.139 3.805,-1.244c1.919,-0.153 4.374,0.281 6.245,0.523c3.986,0.516 10.375,2.593 13.866,3.817c2.488,0.871 7.391,3.112 7.082,3.522c-0.308,0.41 -5.947,-0.783 -8.932,-1.063c-4.46,-0.417 -12.776,-1.418 -17.826,-1.442c-4.181,-0.019 -11.768,1.988 -12.475,1.303Z" style="fill:#312826;"/></g><path d="M135.926,71.942c0.474,-0.505 0.971,-3.134 -0.144,-4.139c-1.782,-1.608 -6.821,-4.001 -10.548,-5.506c-3.784,-1.528 -8.506,-2.868 -12.156,-3.664c-3.174,-0.691 -6.529,-1.645 -9.744,-1.107c-3.483,0.582 -9.56,3.819 -11.151,4.6c-0.464,0.229 1.979,-0.243 1.607,0.086c-0.429,0.379 -3.767,1.835 -4.187,2.191c-0.394,0.334 1.876,-0.355 1.672,-0.055c-0.204,0.3 -2.636,1.509 -2.893,1.854c-0.245,0.329 1.188,-0.125 1.35,0.218c0.162,0.343 -0.724,1.289 -0.38,1.839c0.365,0.581 1.496,1.723 2.566,1.651c1.435,-0.098 3.961,-1.64 6.043,-2.236c2.574,-0.736 6.944,-1.826 9.398,-2.181c1.75,-0.252 3.558,-0.083 5.326,0.055c1.862,0.145 3.951,0.354 5.85,0.818c2.497,0.609 6.73,2.09 9.13,2.835c1.757,0.546 3.895,1.179 5.272,1.636c1.012,0.336 2.515,1.611 2.989,1.105Z" style="fill:none;stroke:#000;stroke-width:1px;"/><path d="M148.804,73.773c-0.749,-0.303 -0.603,-2.414 -0.378,-3.216c0.201,-0.717 0.993,-1.254 1.728,-1.597c1.327,-0.619 4.088,-1.602 6.236,-2.119c2.261,-0.545 4.873,-0.839 7.33,-1.146c2.636,-0.329 6.257,-0.896 8.486,-0.829c1.692,0.05 3.636,0.674 4.887,1.23c1.051,0.467 1.997,1.659 2.614,2.106c0.328,0.237 1.138,0.447 1.091,0.574c-0.046,0.127 -1.378,0.023 -1.369,0.187c0.008,0.165 1.361,0.634 1.422,0.798c0.06,0.164 -0.844,0.094 -1.059,0.188c-0.144,0.063 -0.281,0.239 -0.232,0.375c0.085,0.235 0.583,0.649 0.738,1.033c0.175,0.434 0.292,1.04 0.316,1.572c0.035,0.778 0.478,2.761 -0.106,3.098c-0.583,0.336 -2.327,-0.59 -3.397,-1.08c-1.101,-0.504 -1.989,-1.569 -3.213,-1.947c-1.58,-0.489 -4.154,-0.817 -6.267,-0.986c-2.445,-0.196 -5.949,-0.248 -8.401,-0.188c-2.113,0.052 -4.574,0.224 -6.312,0.549c-1.437,0.268 -3.366,1.701 -4.114,1.398Z" style="fill:#433633;"/><clipPath id="_clip10"><path d="M148.804,73.773c-0.749,-0.303 -0.603,-2.414 -0.378,-3.216c0.201,-0.717 0.993,-1.254 1.728,-1.597c1.327,-0.619 4.088,-1.602 6.236,-2.119c2.261,-0.545 4.873,-0.839 7.33,-1.146c2.636,-0.329 6.257,-0.896 8.486,-0.829c1.692,0.05 3.636,0.674 4.887,1.23c1.051,0.467 1.997,1.659 2.614,2.106c0.328,0.237 1.138,0.447 1.091,0.574c-0.046,0.127 -1.378,0.023 -1.369,0.187c0.008,0.165 1.361,0.634 1.422,0.798c0.06,0.164 -0.844,0.094 -1.059,0.188c-0.144,0.063 -0.281,0.239 -0.232,0.375c0.085,0.235 0.583,0.649 0.738,1.033c0.175,0.434 0.292,1.04 0.316,1.572c0.035,0.778 0.478,2.761 -0.106,3.098c-0.583,0.336 -2.327,-0.59 -3.397,-1.08c-1.101,-0.504 -1.989,-1.569 -3.213,-1.947c-1.58,-0.489 -4.154,-0.817 -6.267,-0.986c-2.445,-0.196 -5.949,-0.248 -8.401,-0.188c-2.113,0.052 -4.574,0.224 -6.312,0.549c-1.437,0.268 -3.366,1.701 -4.114,1.398Z"/></clipPath><g clip-path="url(#_clip10)"><path d="M151.979,72.665c-0.078,-0.424 2.354,-1.266 3.65,-1.455c2.184,-0.319 6.997,-0.381 9.456,-0.457c1.766,-0.055 3.817,-0.133 5.301,0c1.226,0.11 2.672,0.494 3.604,0.796c0.71,0.23 1.442,0.559 1.993,1.018c0.552,0.459 1.075,1.053 1.315,1.739c0.24,0.685 0.89,2.158 0.127,2.374c-1.053,0.299 -4.354,-0.052 -6.445,-0.582c-2.205,-0.558 -4.372,-2.388 -6.785,-2.768c-2.481,-0.391 -6.063,0.535 -8.099,0.424c-1.418,-0.077 -4.039,-0.665 -4.117,-1.089Z" style="fill:#312826;"/></g><path d="M148.804,73.773c-0.749,-0.303 -0.603,-2.414 -0.378,-3.216c0.201,-0.717 0.993,-1.254 1.728,-1.597c1.327,-0.619 4.088,-1.602 6.236,-2.119c2.261,-0.545 4.873,-0.839 7.33,-1.146c2.636,-0.329 6.257,-0.896 8.486,-0.829c1.692,0.05 3.636,0.674 4.887,1.23c1.051,0.467 1.997,1.659 2.614,2.106c0.328,0.237 1.138,0.447 1.091,0.574c-0.046,0.127 -1.378,0.023 -1.369,0.187c0.008,0.165 1.361,0.634 1.422,0.798c0.06,0.164 -0.844,0.094 -1.059,0.188c-0.144,0.063 -0.281,0.239 -0.232,0.375c0.085,0.235 0.583,0.649 0.738,1.033c0.175,0.434 0.292,1.04 0.316,1.572c0.035,0.778 0.478,2.761 -0.106,3.098c-0.583,0.336 -2.327,-0.59 -3.397,-1.08c-1.101,-0.504 -1.989,-1.569 -3.213,-1.947c-1.58,-0.489 -4.154,-0.817 -6.267,-0.986c-2.445,-0.196 -5.949,-0.248 -8.401,-0.188c-2.113,0.052 -4.574,0.224 -6.312,0.549c-1.437,0.268 -3.366,1.701 -4.114,1.398Z" style="fill:none;stroke:#000;stroke-width:1px;"/></g><g id="Left-Eye" serif:id="Left Eye"><path d="M103.911,77.568c-0.966,-0.422 -3.833,-0.971 -3.217,-1.399c0.389,-0.27 1.387,-0.731 2.496,-1.232c1.873,-0.845 4.159,-1.844 5.745,-2.226c2.217,-0.534 4.946,-0.657 6.919,-0.192c1.399,0.33 3.289,1.255 5.721,2.648c2.223,1.273 3.978,2.7 4.221,3.671c0.086,0.345 -0.59,0.55 -0.882,0.655c-0.397,0.142 -2.486,-0.376 -3.781,-0.12c-1.248,0.246 -3.006,0.426 -4.884,0.559c-1.527,0.108 -3.128,0.225 -4.634,-0.001c-1.869,-0.281 -3.716,-0.713 -5.128,-1.229c-1.063,-0.388 -1.717,-0.758 -2.576,-1.134Z" style="fill:#ffcda2;stroke:#000;stroke-width:1px;"/><path d="M116.805,73.347c1.358,0.516 3.188,1.728 4.154,2.461c0.674,0.511 1.617,1.34 1.643,1.935c0.025,0.595 -0.766,1.5 -1.491,1.633c-0.916,0.168 -2.586,0.388 -4.395,0.523c-1.988,0.148 -4.145,0.196 -5.655,-0.039c-2.004,-0.311 -5.519,-1.294 -7.005,-2.201c-0.235,-0.143 -0.534,-0.744 -0.462,-1.312c0.065,-0.516 0.487,-1.004 0.587,-1.096c0.838,-0.766 2.341,-1.369 4.499,-1.916c1.117,-0.283 2.712,-0.661 4.128,-0.621c1.447,0.04 2.736,0.155 3.997,0.633Z" style="fill:#fefffe;stroke:#000;stroke-width:1px;"/><path d="M97.665,74.716c0,0 3.811,-1.794 5.614,-2.421c1.691,-0.587 3.427,-1.1 5.201,-1.339c2.103,-0.283 5.21,-0.454 7.416,-0.36c1.963,0.084 4.129,0.206 5.819,0.927c1.687,0.719 3.447,2.506 4.326,3.399" style="fill:none;stroke:#000;stroke-width:1px;"/><path d="M108.155,73.755c-0.294,0.618 -0.368,2.277 0.152,3.281c0.545,1.051 1.744,2.06 2.988,2.316c1.36,0.28 3.071,0.133 4.378,-1.13c0.686,-0.663 1.326,-1.715 1.343,-2.996c0.008,-0.658 -0.149,-1.354 -0.424,-1.755c-0.301,-0.437 -1.257,-0.489 -1.868,-0.614c-0.589,-0.122 -1.26,-0.127 -1.798,-0.141c-0.477,-0.011 -0.993,0.021 -1.431,0.061c-0.403,0.036 -0.803,0.104 -1.2,0.176c-0.424,0.078 -0.986,0.155 -1.342,0.289c-0.296,0.11 -0.629,0.158 -0.798,0.513Z" style="fill:#a2e5f8;"/><clipPath id="_clip11"><path d="M108.155,73.755c-0.294,0.618 -0.368,2.277 0.152,3.281c0.545,1.051 1.744,2.06 2.988,2.316c1.36,0.28 3.071,0.133 4.378,-1.13c0.686,-0.663 1.326,-1.715 1.343,-2.996c0.008,-0.658 -0.149,-1.354 -0.424,-1.755c-0.301,-0.437 -1.257,-0.489 -1.868,-0.614c-0.589,-0.122 -1.26,-0.127 -1.798,-0.141c-0.477,-0.011 -0.993,0.021 -1.431,0.061c-0.403,0.036 -0.803,0.104 -1.2,0.176c-0.424,0.078 -0.986,0.155 -1.342,0.289c-0.296,0.11 -0.629,0.158 -0.798,0.513Z"/></clipPath><g clip-path="url(#_clip11)"><path d="M110.861,76.334c0.087,0.138 0.202,0.238 0.331,0.316l-0.899,1.846c-0.371,-0.121 -0.631,-0.395 -0.874,-0.656l1.442,-1.506Z" style="fill:#fff;fill-opacity:0.505882;"/><path d="M113.955,76.407c0.35,-0.505 0.422,-0.683 0.447,-1.385l2.232,-0.055c0.009,1.367 -0.373,2.106 -1.177,2.885l-1.502,-1.445Z" style="fill:#fff;fill-opacity:0.505882;"/><path d="M111.192,73.708c-0.428,0.399 -0.506,0.675 -0.644,1.056l-1.808,-0.829c0.026,-0.43 0.883,-1.535 1.347,-1.635l1.105,1.408Z" style="fill:#fff;fill-opacity:0.505882;"/><circle cx="112.471" cy="75.108" r="2.713"/><g><path d="M112.163,77.336l0.16,-0.59c0.237,0.046 0.474,0.011 0.711,-0.032l0,0.561c-0.213,0.094 -0.478,0.105 -0.871,0.061Z" style="fill:#fff;"/><path d="M110.523,74.287c-0.411,0.408 -0.338,1.073 -0.319,1.249c0.043,0.393 0.335,0.956 0.76,1.302c0.391,0.317 0.875,0.437 0.875,0.437l0.227,-0.561c0,0 -0.475,-0.068 -0.881,-0.453c-0.547,-0.517 -0.748,-1.104 -0.662,-1.974Z" style="fill:#fff;"/></g></g><path d="M108.155,73.755c-0.294,0.618 -0.368,2.277 0.152,3.281c0.545,1.051 1.744,2.06 2.988,2.316c1.36,0.28 3.071,0.133 4.378,-1.13c0.686,-0.663 1.326,-1.715 1.343,-2.996c0.008,-0.658 -0.149,-1.354 -0.424,-1.755c-0.301,-0.437 -1.257,-0.489 -1.868,-0.614c-0.589,-0.122 -1.26,-0.127 -1.798,-0.141c-0.477,-0.011 -0.993,0.021 -1.431,0.061c-0.403,0.036 -0.803,0.104 -1.2,0.176c-0.424,0.078 -0.986,0.155 -1.342,0.289c-0.296,0.11 -0.629,0.158 -0.798,0.513Z" style="fill:none;stroke:#000;stroke-width:1px;"/><path d="M105.171,80.264c1.611,0.394 4.833,1.181 7.3,1.218c2.713,0.041 6.89,-0.636 8.978,-0.974" style="fill:none;stroke:#000;stroke-width:1px;"/></g><g id="Right-Eye" serif:id="Right Eye"><path d="M152.038,83.118c-0.311,-0.481 0.209,-1.828 0.796,-2.458c0.612,-0.659 1.859,-1.139 2.88,-1.495c1.148,-0.399 2.641,-0.827 4.009,-0.903c1.384,-0.076 2.982,0.091 4.295,0.446c1.273,0.344 2.542,0.962 3.581,1.683c1.026,0.712 2.116,1.866 2.654,2.644c0.399,0.575 1.056,1.511 0.576,2.02c-0.285,0.303 -1.613,-0.198 -2.356,0.149c-0.821,0.383 -2.038,0.624 -2.919,0.705c-1.799,0.166 -3.326,0.124 -4.924,-0.191c-1.817,-0.357 -4.502,-1.741 -5.934,-2.174c-0.859,-0.26 -2.348,0.055 -2.658,-0.426Z" style="fill:#ffcda2;stroke:#000;stroke-width:1px;"/><path d="M154.955,83.621c-1.637,-0.65 -1.049,-2.956 0.317,-3.687c0.158,-0.085 1.527,-0.669 2.904,-0.947c1.157,-0.234 2.42,-0.352 3.628,-0.226c1.109,0.116 1.813,0.291 2.807,0.674c1.015,0.392 1.706,0.784 2.504,1.253c0.667,0.392 1.499,1.046 1.868,1.62c0.34,0.531 0.418,1.345 0.342,1.824c-0.067,0.421 -0.397,0.832 -0.798,1.044c-0.546,0.288 -1.636,0.502 -2.474,0.682c-1.35,0.29 -4.452,0.141 -5.713,-0.179c-0.608,-0.154 -1.253,-0.412 -1.774,-0.605c-0.458,-0.17 -0.943,-0.386 -1.353,-0.556c-0.37,-0.153 -0.734,-0.316 -1.106,-0.464c-0.377,-0.15 -0.737,-0.268 -1.152,-0.433Z" style="fill:#fefffe;"/><clipPath id="_clip12"><path d="M154.955,83.621c-1.637,-0.65 -1.049,-2.956 0.317,-3.687c0.158,-0.085 1.527,-0.669 2.904,-0.947c1.157,-0.234 2.42,-0.352 3.628,-0.226c1.109,0.116 1.813,0.291 2.807,0.674c1.015,0.392 1.706,0.784 2.504,1.253c0.667,0.392 1.499,1.046 1.868,1.62c0.34,0.531 0.418,1.345 0.342,1.824c-0.067,0.421 -0.397,0.832 -0.798,1.044c-0.546,0.288 -1.636,0.502 -2.474,0.682c-1.35,0.29 -4.452,0.141 -5.713,-0.179c-0.608,-0.154 -1.253,-0.412 -1.774,-0.605c-0.458,-0.17 -0.943,-0.386 -1.353,-0.556c-0.37,-0.153 -0.734,-0.316 -1.106,-0.464c-0.377,-0.15 -0.737,-0.268 -1.152,-0.433Z"/></clipPath><g clip-path="url(#_clip12)"><path d="M157.211,79.417c-0.311,0.716 -0.412,1.94 -0.201,2.76c0.211,0.82 0.739,1.684 1.468,2.162c0.781,0.512 2.183,0.955 3.22,0.911c1.037,-0.044 2.269,-0.535 3.004,-1.174c0.734,-0.638 1.276,-1.789 1.405,-2.656c0.128,-0.866 -0.028,-1.916 -0.633,-2.548c-0.677,-0.708 -2.33,-1.534 -3.429,-1.699c-1.069,-0.161 -2.36,0.336 -3.166,0.71c-0.685,0.318 -1.366,0.842 -1.668,1.534Z" style="fill:#a2e5f8;"/><clipPath id="_clip13"><path d="M157.211,79.417c-0.311,0.716 -0.412,1.94 -0.201,2.76c0.211,0.82 0.739,1.684 1.468,2.162c0.781,0.512 2.183,0.955 3.22,0.911c1.037,-0.044 2.269,-0.535 3.004,-1.174c0.734,-0.638 1.276,-1.789 1.405,-2.656c0.128,-0.866 -0.028,-1.916 -0.633,-2.548c-0.677,-0.708 -2.33,-1.534 -3.429,-1.699c-1.069,-0.161 -2.36,0.336 -3.166,0.71c-0.685,0.318 -1.366,0.842 -1.668,1.534Z"/></clipPath><g clip-path="url(#_clip13)"><path d="M162.509,83.087c0.418,-0.31 0.584,-0.438 0.818,-0.943l1.748,0.795c-0.64,0.985 -0.925,1.152 -2.002,1.604l-0.564,-1.456Z" style="fill:#fff;fill-opacity:0.427451;"/><path d="M163.298,80.76c-0.075,-0.216 -0.155,-0.375 -0.33,-0.597l1.6,-1.33c0.517,1.056 1.24,0.145 1.074,1.301l-2.344,0.626Z" style="fill:#fff;fill-opacity:0.427451;"/><path d="M159.83,80.536c-0.195,0.431 -0.251,0.852 -0.088,1.398l-1.499,1.651c-1.401,-1.347 -0.956,-3.398 -0.5,-4.927l2.087,1.878Z" style="fill:#fff;fill-opacity:0.427451;"/></g><path d="M157.211,79.417c-0.311,0.716 -0.412,1.94 -0.201,2.76c0.211,0.82 0.739,1.684 1.468,2.162c0.781,0.512 2.183,0.955 3.22,0.911c1.037,-0.044 2.269,-0.535 3.004,-1.174c0.734,-0.638 1.276,-1.789 1.405,-2.656c0.128,-0.866 -0.028,-1.916 -0.633,-2.548c-0.677,-0.708 -2.33,-1.534 -3.429,-1.699c-1.069,-0.161 -2.36,0.336 -3.166,0.71c-0.685,0.318 -1.366,0.842 -1.668,1.534Z" style="fill:none;stroke:#000;stroke-width:1px;"/><circle cx="161.524" cy="81.352" r="2.612"/><g><path d="M161.105,83.347l0.132,-0.488c0.196,0.038 0.392,0.009 0.588,-0.027l0,0.464c-0.175,0.078 -0.395,0.087 -0.72,0.051Z" style="fill:#fff;"/><path d="M159.748,80.824c-0.339,0.338 -0.28,0.888 -0.264,1.033c0.036,0.326 0.278,0.791 0.629,1.077c0.324,0.263 0.724,0.362 0.724,0.362l0.188,-0.464c0,0 -0.393,-0.056 -0.729,-0.375c-0.452,-0.428 -0.619,-0.913 -0.548,-1.633Z" style="fill:#fff;"/></g></g><path d="M154.955,83.621c-1.637,-0.65 -1.049,-2.956 0.317,-3.687c0.158,-0.085 1.527,-0.669 2.904,-0.947c1.157,-0.234 2.42,-0.352 3.628,-0.226c1.109,0.116 1.813,0.291 2.807,0.674c1.015,0.392 1.706,0.784 2.504,1.253c0.667,0.392 1.499,1.046 1.868,1.62c0.34,0.531 0.418,1.345 0.342,1.824c-0.067,0.421 -0.397,0.832 -0.798,1.044c-0.546,0.288 -1.636,0.502 -2.474,0.682c-1.35,0.29 -4.452,0.141 -5.713,-0.179c-0.608,-0.154 -1.253,-0.412 -1.774,-0.605c-0.458,-0.17 -0.943,-0.386 -1.353,-0.556c-0.37,-0.153 -0.734,-0.316 -1.106,-0.464c-0.377,-0.15 -0.737,-0.268 -1.152,-0.433Z" style="fill:none;stroke:#000;stroke-width:1px;"/><path d="M152.834,78.513c0.87,-0.57 2.609,-1.709 3.877,-2.146c1.184,-0.408 2.475,-0.476 3.728,-0.476c1.4,0 3.179,0.007 4.673,0.476c1.657,0.52 3.927,1.631 5.269,2.643c1.176,0.886 2.248,2.582 2.784,3.43" style="fill:none;stroke:#000;stroke-width:1px;"/><path d="M154.053,84.549c1.79,0.818 5.37,2.453 8.235,2.86c2.865,0.406 6.924,-0.146 8.954,-0.422" style="fill:none;stroke:#000;stroke-width:1px;"/></g></g></svg>