<svg aria-hidden="true" style="position: absolute; width: 0; height: 0; overflow: hidden;" version="1.1" xmlns="http://www.w3.org/2000/svg" xmlns:xlink="http://www.w3.org/1999/xlink">
<defs>
<symbol id="icon-a-circle-down" viewBox="0 0 32 32">
<title>a-circle-down</title>
<path d="M32 16c0-8.837-7.163-16-16-16s-16 7.163-16 16 7.163 16 16 16 16-7.163 16-16zM3 16c0-7.18 5.82-13 13-13s13 5.82 13 13-5.82 13-13 13-13-5.82-13-13z"></path>
<path d="M9.914 11.086l-2.829 2.829 8.914 8.914 8.914-8.914-2.828-2.828-6.086 6.086z"></path>
</symbol>
<symbol id="icon-a-circle-left" viewBox="0 0 32 32">
<title>a-circle-left</title>
<path d="M16 32c8.837 0 16-7.163 16-16s-7.163-16-16-16-16 7.163-16 16 7.163 16 16 16zM16 3c7.18 0 13 5.82 13 13s-5.82 13-13 13-13-5.82-13-13 5.82-13 13-13z"></path>
<path d="M20.914 9.914l-2.829-2.829-8.914 8.914 8.914 8.914 2.828-2.828-6.086-6.086z"></path>
</symbol>
<symbol id="icon-a-circle-right" viewBox="0 0 32 32">
<title>a-circle-right</title>
<path d="M16 0c-8.837 0-16 7.163-16 16s7.163 16 16 16 16-7.163 16-16-7.163-16-16-16zM16 29c-7.18 0-13-5.82-13-13s5.82-13 13-13 13 5.82 13 13-5.82 13-13 13z"></path>
<path d="M11.086 22.086l2.829 2.829 8.914-8.914-8.914-8.914-2.828 2.828 6.086 6.086z"></path>
</symbol>
<symbol id="icon-a-circle-up" viewBox="0 0 32 32">
<title>a-circle-up</title>
<path d="M0 16c0 8.837 7.163 16 16 16s16-7.163 16-16-7.163-16-16-16-16 7.163-16 16zM29 16c0 7.18-5.82 13-13 13s-13-5.82-13-13 5.82-13 13-13 13 5.82 13 13z"></path>
<path d="M22.086 20.914l2.829-2.829-8.914-8.914-8.914 8.914 2.828 2.828 6.086-6.086z"></path>
</symbol>
<symbol id="icon-a-display" viewBox="0 0 32 32">
<title>a-display</title>
<path d="M0 2v20h32v-20h-32zM30 20h-28v-16h28v16zM21 24h-10l-1 4-2 2h16l-2-2z"></path>
</symbol>
<symbol id="icon-a-download" viewBox="0 0 32 32">
<title>a-download</title>
<path d="M28 16h-5l-7 7-7-7h-5l-4 8v2h32v-2l-4-8zM0 28h32v2h-32v-2zM18 10v-8h-4v8h-7l9 9 9-9h-7z"></path>
</symbol>
<symbol id="icon-a-email" viewBox="0 0 32 32">
<title>a-email</title>
<path d="M32 17.279v-5.478c0-2.059-0.010-3.814-0.015-4.529l-6.815 4.779 6.83 5.228z"></path>
<path d="M0 17.075v-5.477c0-2.058 0.010-3.813 0.014-4.528l6.814 4.779-6.828 5.226z"></path>
<path d="M16.033 14.854l14.061-9.862-28.125-0.005 14.064 9.867z"></path>
<path d="M22.258 13.396l-5.714 4.008c-0.149 0.105-0.331 0.154-0.513 0.154-0.179 0-0.358-0.049-0.512-0.154l-5.698-4-9.566 7.323c-0.079 0.057-0.165 0.099-0.255 0.129v0.102l0.023 6.055h31.94l0.023-6.055v-0.123l-9.728-7.439zM28.535 23.732h-6.274v-2.382h6.274v2.382z"></path>
</symbol>
<symbol id="icon-a-graphic-design" viewBox="0 0 32 32">
<title>a-graphic-design</title>
<path d="M3.165 6.945c1.231-1.231 2.461-2.461 2.989-2.11 0.879 0.352 0 1.758-0.528 2.638-0.527 0.703-5.099 6.857-5.099 11.076 0 2.286 0.88 4.044 2.286 5.275 1.407 1.055 2.989 1.231 4.572 0.879 1.934-0.527 3.34-2.461 5.45-4.923 2.11-2.637 4.923-5.978 7.209-5.978 2.813 0 2.813 1.758 3.165 3.165-6.682 1.055-9.495 6.506-9.495 9.495 0 2.988 2.462 5.45 5.627 5.45 2.813 0 7.56-2.286 8.263-10.725h4.396v-4.396h-4.396c-0.351-2.813-1.934-7.384-7.033-7.384-3.868 0-7.384 3.34-8.615 4.923-1.055 1.23-3.692 4.395-4.044 4.747-0.527 0.527-1.231 1.407-1.934 1.407s-1.231-1.407-0.703-3.341c0.703-1.934 2.461-5.099 3.34-6.154 1.231-2.11 2.11-3.516 2.11-5.802 0-3.868-2.813-5.099-4.395-5.099-2.286 0-4.22 1.758-4.748 2.286-0.527 0.527-1.055 1.055-1.582 1.582l3.165 2.989zM19.517 27.516c-0.528 0-1.231-0.527-1.231-1.23 0-1.055 1.231-3.868 5.099-4.923-0.704 4.747-2.638 6.153-3.868 6.153z"></path>
</symbol>
<symbol id="icon-a-home" viewBox="0 0 32 32">
<title>a-home</title>
<path d="M32 18.451l-16-12.42-16 12.42v-5.064l16-12.42 16 12.42zM28 18v12h-8v-8h-8v8h-8v-12l12-9z"></path>
</symbol>
<symbol id="icon-a-keyboard" viewBox="0 0 36 32">
<title>a-keyboard</title>
<path d="M34 4h-32c-1.1 0-2 0.9-2 2v20c0 1.1 0.9 2 2 2h32c1.1 0 2-0.9 2-2v-20c0-1.1-0.9-2-2-2zM20 8h4v4h-4v-4zM26 14v4h-4v-4h4zM14 8h4v4h-4v-4zM20 14v4h-4v-4h4zM8 8h4v4h-4v-4zM14 14v4h-4v-4h4zM4 8h2v4h-2v-4zM4 14h4v4h-4v-4zM6 24h-2v-4h2v4zM24 24h-16v-4h16v4zM32 24h-6v-4h6v4zM32 18h-4v-4h4v4zM32 12h-6v-4h6v4z"></path>
</symbol>
<symbol id="icon-a-laptop" viewBox="0 0 32 32">
<title>a-laptop</title>
<path d="M28 22v-16c0-1.1-0.9-2-2-2h-20c-1.1 0-2 0.9-2 2v16h-4v6h32v-6h-4zM20 26h-8v-2h8v2zM26 22h-20v-15.996c0.001-0.001 0.002-0.003 0.004-0.004h19.993c0.001 0.001 0.003 0.002 0.004 0.004v15.996z"></path>
</symbol>
<symbol id="icon-a-location" viewBox="0 0 32 32">
<title>a-location</title>
<path d="M16 0c-5.523 0-10 4.477-10 10 0 10 10 22 10 22s10-12 10-22c0-5.523-4.477-10-10-10zM16 16c-3.314 0-6-2.686-6-6s2.686-6 6-6 6 2.686 6 6-2.686 6-6 6z"></path>
</symbol>
<symbol id="icon-a-message" viewBox="0 0 32 32">
<title>a-message</title>
<path d="M25.11 29.070l6.89-27.74-32 12.384c-0.221 0.084 10.217 6.216 10.217 6.216l8.015-4.689-5.752 5.856v9.423c-0.001 0.247 6.148-5.48 6.148-5.48l6.482 4.030z"></path>
</symbol>
<symbol id="icon-a-mobile" viewBox="0 0 32 32">
<title>a-mobile</title>
<path d="M23 0h-14c-1.65 0-3 1.35-3 3v26c0 1.65 1.35 3 3 3h14c1.65 0 3-1.35 3-3v-26c0-1.65-1.35-3-3-3zM12 1.5h8v1h-8v-1zM16 30c-1.105 0-2-0.895-2-2s0.895-2 2-2 2 0.895 2 2-0.895 2-2 2zM24 24h-16v-20h16v20z"></path>
</symbol>
<symbol id="icon-a-mobile2" viewBox="0 0 32 32">
<title>a-mobile2</title>
<path d="M24 0h-18c-1.1 0-2 0.9-2 2v28c0 1.1 0.9 2 2 2h18c1.1 0 2-0.9 2-2v-28c0-1.1-0.9-2-2-2zM15 30.556c-0.859 0-1.556-0.697-1.556-1.556s0.697-1.556 1.556-1.556 1.556 0.697 1.556 1.556-0.697 1.556-1.556 1.556zM24 26h-18v-22h18v22z"></path>
</symbol>
<symbol id="icon-a-mug" viewBox="0 0 32 32">
<title>a-mug</title>
<path d="M30 10h-6v-3c0-2.761-5.373-5-12-5s-12 2.239-12 5v20c0 2.761 5.373 5 12 5s12-2.239 12-5v-3h6c1.105 0 2-0.895 2-2v-10c0-1.105-0.895-2-2-2zM5.502 8.075c-1.156-0.381-1.857-0.789-2.232-1.075 0.375-0.286 1.075-0.694 2.232-1.075 1.811-0.597 4.118-0.925 6.498-0.925s4.688 0.329 6.498 0.925c1.156 0.381 1.857 0.789 2.232 1.075-0.375 0.286-1.076 0.694-2.232 1.075-1.811 0.597-4.118 0.925-6.498 0.925s-4.688-0.329-6.498-0.925zM28 20h-4v-6h4v6z"></path>
</symbol>
<symbol id="icon-a-resume" viewBox="0 0 32 32">
<title>a-resume</title>
<path d="M4.532 0v32h22.936v-32h-22.936zM16 3.928c1.038 0 1.881 0.81 1.881 1.802s-0.836 1.802-1.881 1.802c-1.045 0-1.881-0.81-1.881-1.802s0.836-1.802 1.881-1.802zM10.769 12.816c0 0 0.362-0.616 0.897-1.523 0.904-1.536 2.553-2.478 4.334-2.478s3.431 0.943 4.334 2.478c0.534 0.908 0.897 1.523 0.897 1.523h-10.462zM24.059 28.219h-16.124v-1.319h16.124v1.319zM24.059 23.543h-16.124v-1.319h16.124v1.319zM24.059 18.847h-16.124v-1.319h16.124v1.319z"></path>
</symbol>
<symbol id="icon-a-terminal" viewBox="0 0 32 32">
<title>a-terminal</title>
<path d="M0 2v28h32v-28h-32zM30 28h-28v-24h28v24zM28 6h-24v20h24v-20zM14 16h-2v2h-2v2h-2v-2h2v-2h2v-2h-2v-2h-2v-2h2v2h2v2h2v2zM22 20h-6v-2h6v2z"></path>
</symbol>
<symbol id="icon-a-web-design" viewBox="0 0 32 32">
<title>a-web-design</title>
<path d="M15.061 22.743l-9.189 9.189-2.082-2.082 9.189-9.189 2.082 2.082zM17.743 9.493l4.377-4.377c0.002-0.002 0.006-0.004 0.008-0.007 0.031-0.030 0.065-0.057 0.101-0.082 0.006-0.004 0.012-0.009 0.018-0.013 0.030-0.020 0.062-0.038 0.095-0.054 0 0 9.029-3.713 8.923-3.488l-1.601 4.238c0 0 0 0 0 0.001l-2.103 4.467c-0.016 0.032-0.033 0.063-0.052 0.092-0.004 0.006-0.009 0.012-0.013 0.019-0.026 0.037-0.054 0.071-0.085 0.103-0.002 0.003-0.004 0.006-0.007 0.009l-4.377 4.377-2.082-2.083 3.817-3.816-1.12-1.12-3.817 3.817-2.082-2.083zM24.036 5.913l2.571 2.571 1.387-2.945-1.013-1.012-2.945 1.386zM9.777 17.459l-9.189 9.189 2.082 2.082 9.189-9.189-2.082-2.082zM3.4 2.591l-3.059 3.059 25.418 25.551 3.125-3.125-25.484-25.485zM31.485 25.475l-25.475-25.475-1.49 1.471 25.484 25.485 1.481-1.481z"></path>
</symbol>
<symbol id="icon-des-adobe-illustrator" viewBox="0 0 32 32">
<title>des-adobe-illustrator</title>
<path d="M13.095 10.799c-0.249 1.003-1.764 6.79-1.764 6.79h3.709c0 0-1.65-5.787-1.896-6.79h-0.049z"></path>
<path d="M0 0v32h32v-32h-32zM16.881 24.728l-1.296-4.298h-4.796l-1.201 4.298h-3.93l5.131-16.76h4.967l5.196 16.76h-4.071zM26.217 24.728h-3.785v-12.155h3.785v12.155zM24.301 11.077c-1.191 0-1.991-0.849-1.965-1.889-0.026-1.096 0.774-1.916 1.995-1.916 1.22 0 1.981 0.82 2.011 1.916 0 1.040-0.791 1.889-2.041 1.889z"></path>
</symbol>
<symbol id="icon-des-adobe-illustrator-o" viewBox="0 0 32 32">
<title>des-adobe-illustrator-o</title>
<path d="M11.111 20.156h4.499l1.216 4.032h3.82l-4.875-15.724h-4.66l-4.813 15.724h3.687l1.126-4.032zM13.275 11.121h0.046c0.231 0.941 1.779 6.37 1.779 6.37h-3.481c0 0 1.422-5.429 1.656-6.37z"></path>
<path d="M22.034 12.785h3.551v11.403h-3.551v-11.403z"></path>
<path d="M23.788 11.382c1.172 0 1.914-0.797 1.914-1.773-0.027-1.028-0.742-1.797-1.887-1.797s-1.896 0.769-1.87 1.797c-0.026 0.976 0.725 1.773 1.843 1.773z"></path>
<path d="M0 0v32h32v-32h-32zM30.021 30.021h-28.042v-28.042h28.042v28.042z"></path>
</symbol>
<symbol id="icon-des-adobe-photoshop" viewBox="0 0 32 32">
<title>des-adobe-photoshop</title>
<path d="M10.502 10.184c-0.778 0-1.315 0.078-1.585 0.155v5.041c0.33 0.071 0.729 0.095 1.284 0.095 2.051 0 3.326-1.037 3.326-2.789-0.009-1.568-1.093-2.502-3.025-2.502z"></path>
<path d="M0 0v32h32v-32h-32zM15.769 16.647c-1.308 1.237-3.264 1.791-5.544 1.791-0.501 0-0.96-0.017-1.315-0.068v6.107h-3.821v-16.85c1.186-0.2 2.858-0.355 5.214-0.355 2.384 0 4.080 0.45 5.216 1.368 1.1 0.859 1.827 2.28 1.827 3.952 0 1.67-0.554 3.092-1.577 4.055zM21.54 24.728c-1.621 0-3.067-0.355-4.003-0.865l0.685-2.757c0.71 0.426 2.174 0.936 3.318 0.936 1.16 0 1.645-0.406 1.645-1.040 0-0.632-0.381-0.934-1.818-1.419-2.566-0.858-3.553-2.253-3.526-3.726 0-2.304 1.976-4.054 5.041-4.054 1.448 0 2.739 0.328 3.499 0.71l-0.683 2.661c-0.563-0.304-1.621-0.712-2.685-0.712-0.936 0-1.464 0.381-1.464 1.013 0 0.581 0.477 0.885 1.991 1.422 2.358 0.805 3.345 2 3.371 3.821 0 2.313-1.829 4.010-5.371 4.010z"></path>
</symbol>
<symbol id="icon-des-adobe-photoshop-o" viewBox="0 0 32 32">
<title>des-adobe-photoshop-o</title>
<path d="M21.197 21.669c-1.073 0-2.446-0.479-3.112-0.878l-0.643 2.586c0.878 0.478 2.234 0.811 3.755 0.811 3.323 0 5.039-1.592 5.039-3.761-0.025-1.709-0.95-2.83-3.162-3.585-1.421-0.504-1.868-0.789-1.868-1.334 0-0.593 0.495-0.951 1.373-0.951 0.998 0 1.991 0.383 2.519 0.668l0.641-2.497c-0.714-0.357-1.924-0.665-3.283-0.665-2.875 0-4.729 1.641-4.729 3.803-0.025 1.381 0.901 2.69 3.308 3.495 1.348 0.456 1.706 0.739 1.706 1.332 0 0.595-0.456 0.976-1.544 0.976z"></path>
<path d="M9.348 18.223c0.333 0.048 0.764 0.065 1.234 0.065 2.139 0 3.974-0.52 5.202-1.681 0.959-0.903 1.479-2.237 1.479-3.804s-0.683-2.902-1.715-3.707c-1.065-0.862-2.656-1.284-4.893-1.284-2.21 0-3.778 0.146-4.892 0.333v15.808h3.585v-5.73zM9.355 10.689c0.254-0.072 0.757-0.145 1.487-0.145 1.812 0 2.83 0.876 2.838 2.347 0 1.643-1.196 2.617-3.121 2.617-0.52 0-0.894-0.023-1.204-0.089v-4.73z"></path>
<path d="M0 0v32h32v-32h-32zM30.021 30.021h-28.042v-28.042h28.042v28.042z"></path>
</symbol>
<symbol id="icon-des-affinity" viewBox="0 0 32 32">
<title>des-affinity</title>
<path d="M12.49 1.438h5.040l0.421 0.734h1.445l12.604 21.835-2.714 4.628h-11.031l1.117 1.927h-0.487l-1.118-1.927h-13.694l-0.701-1.232h-0.866l-2.506-4.338h0.005l3.211-5.571 2.975-1.714 4.921-8.521-0.99-1.715 2.368-4.106zM15.46 8.973l-8.706 15.039h8.332l-0.962-1.663 9.080 0.010-7.744-13.386z"></path>
</symbol>
<symbol id="icon-dev-bootstrap" viewBox="0 0 32 32">
<title>dev-bootstrap</title>
<path d="M32 32h-32v-32h32v32zM16.311 5.333h-8.311v21.334h9.271c2.516-0.018 4.409-0.56 5.698-1.6 1.28-1.058 1.92-2.622 1.92-4.711 0-1.156-0.285-2.134-0.862-2.934-0.578-0.8-1.414-1.351-2.489-1.644 0 0 0.906-0.329 1.724-1.556 0.489-0.782 0.738-1.724 0.738-2.826 0-1.911-0.693-3.378-2.080-4.383s-2.951-1.68-5.609-1.68zM17.778 23.111h-4.445v-5.333h4.445c1.475 0 2.667 1.191 2.667 2.667 0 1.475-1.191 2.666-2.667 2.666zM17.111 13.778h-3.778v-4.889c0 0 3.707 0 3.778 0 1.351 0 2.445 1.093 2.445 2.444 0 1.352-1.094 2.445-2.445 2.445z"></path>
</symbol>
<symbol id="icon-dev-chrome" viewBox="0 0 32 32">
<title>dev-chrome</title>
<path d="M8.071 13.954l-4.579-7.931c2.932-3.671 7.445-6.023 12.508-6.023 5.857 0 10.978 3.148 13.767 7.844h-13.055c-0.235-0.020-0.472-0.031-0.711-0.031-3.809 0-7.018 2.614-7.929 6.142zM21.728 10.156h9.171c0.711 1.81 1.101 3.781 1.101 5.844 0 8.776-7.066 15.9-15.818 15.998l6.544-11.334c0.921-1.324 1.462-2.932 1.462-4.664 0-2.287-0.943-4.357-2.459-5.844zM10.188 16c0-3.205 2.607-5.813 5.813-5.813s5.813 2.607 5.813 5.813c0 3.205-2.608 5.813-5.813 5.813s-5.813-2.608-5.813-5.813zM18.193 23.889l-4.581 7.934c-7.704-1.153-13.613-7.797-13.613-15.822 0-2.851 0.746-5.526 2.053-7.845l6.532 11.314c1.308 2.785 4.14 4.718 7.415 4.718 0.759 0 1.495-0.104 2.193-0.299z"></path>
</symbol>
<symbol id="icon-dev-codepen" viewBox="0 0 32 32">
<title>dev-codepen</title>
<path d="M32 10.909l-0.024-0.116-0.023-0.067c-0.013-0.032-0.024-0.067-0.040-0.1-0.004-0.024-0.020-0.045-0.027-0.067l-0.047-0.089-0.040-0.067-0.059-0.080-0.061-0.060-0.080-0.060-0.061-0.040-0.080-0.059-0.059-0.053-0.020-0.027-14.607-9.772c-0.463-0.309-1.061-0.309-1.523 0l-14.805 9.883-0.051 0.053-0.067 0.075-0.049 0.060-0.067 0.080c-0.027 0.023-0.040 0.040-0.040 0.061l-0.067 0.080-0.027 0.080c-0.027 0.013-0.027 0.053-0.040 0.093l-0.013 0.067c-0.025 0.041-0.025 0.081-0.025 0.121v9.996c0 0.059 0.004 0.12 0.013 0.18l0.013 0.061c0.007 0.040 0.013 0.080 0.027 0.115l0.020 0.067c0.013 0.036 0.021 0.071 0.036 0.1l0.029 0.067c0 0.013 0.020 0.053 0.040 0.080l0.040 0.053c0.020 0.013 0.040 0.053 0.060 0.080l0.040 0.053 0.053 0.053c0.013 0.017 0.013 0.040 0.040 0.040l0.080 0.056 0.053 0.040 0.013 0.019 14.627 9.773c0.219 0.16 0.5 0.217 0.76 0.217s0.52-0.080 0.76-0.24l14.877-9.875 0.069-0.077 0.044-0.060 0.053-0.080 0.040-0.067 0.040-0.093 0.021-0.069 0.040-0.103 0.020-0.060 0.040-0.107v-10c0-0.067 0-0.127-0.021-0.187l-0.019-0.060 0.059 0.004zM16.013 19.283l-4.867-3.253 4.867-3.256 4.867 3.253-4.867 3.253zM14.635 10.384l-5.964 3.987-4.817-3.221 10.781-7.187v6.424zM6.195 16.028l-3.443 2.307v-4.601l3.443 2.301zM8.671 17.695l5.964 3.987v6.427l-10.781-7.188 4.824-3.223v-0.005zM17.387 21.681l5.965-3.973 4.817 3.227-10.783 7.187v-6.427zM25.827 16.041l3.444-2.293v4.608l-3.444-2.307zM23.353 14.388l-5.964-3.988v-6.44l10.78 7.187-4.816 3.224z"></path>
</symbol>
<symbol id="icon-dev-css3" viewBox="0 0 32 32">
<title>dev-css3</title>
<path d="M2 0h28l-2.547 28.751-11.484 3.249-11.42-3.251-2.549-28.749zM24.787 5.884l-17.573-0.004 0.284 3.496 13.5 0.003-0.34 3.621h-8.853l0.32 3.431h8.243l-0.488 4.697-3.88 1.072-3.941-1.080-0.251-2.813h-3.48l0.387 5.14 7.287 2.271 7.164-2.040 1.623-17.792-0.002-0.002z"></path>
</symbol>
<symbol id="icon-dev-firefox" viewBox="0 0 32 32">
<title>dev-firefox</title>
<path d="M31.954 10.442l-0.371 2.377c0 0-0.53-4.402-1.179-6.047-0.995-2.521-1.438-2.501-1.441-2.498 0.667 1.694 0.546 2.604 0.546 2.604s-1.181-3.219-4.303-4.243c-3.459-1.134-5.33-0.824-5.547-0.765-0.033 0-0.064 0-0.095 0 0.026 0.002 0.050 0.005 0.076 0.007-0.001 0.001-0.003 0.001-0.003 0.002 0.014 0.017 3.822 0.666 4.497 1.594 0 0-1.617 0-3.227 0.464-0.073 0.021 5.923 0.749 7.148 6.74 0 0-0.657-1.371-1.47-1.604 0.535 1.626 0.397 4.712-0.112 6.245-0.066 0.197-0.133-0.853-1.135-1.305 0.321 2.301-0.019 5.952-1.616 6.957-0.124 0.078 1.001-3.603 0.226-2.18-4.46 6.838-9.731 3.155-12.101 1.535 1.215 0.264 3.52-0.041 4.541-0.8 0.001-0.001 0.002-0.002 0.004-0.003 1.108-0.758 1.765-1.311 2.354-1.18s0.982-0.46 0.524-0.985c-0.459-0.526-1.572-1.249-3.079-0.855-1.063 0.278-2.379 1.454-4.389 0.264-1.543-0.914-1.688-1.673-1.702-2.199 0.038-0.186 0.086-0.361 0.143-0.52 0.178-0.496 0.716-0.646 1.015-0.764 0.508 0.087 0.946 0.246 1.405 0.481 0.006-0.153 0.008-0.356-0.001-0.586 0.044-0.088 0.017-0.352-0.054-0.674-0.041-0.322-0.107-0.655-0.211-0.959 0 0 0.001 0 0.001 0 0.002-0.001 0.003-0.001 0.005-0.002s0.005-0.004 0.007-0.006c0-0.001 0.001-0.001 0.001-0.002 0.003-0.004 0.005-0.008 0.006-0.015 0.032-0.144 0.376-0.423 0.804-0.722 0.383-0.268 0.834-0.553 1.19-0.774 0.314-0.195 0.554-0.34 0.605-0.378 0.019-0.015 0.042-0.032 0.068-0.051 0.005-0.004 0.009-0.007 0.014-0.011 0.003-0.002 0.006-0.005 0.009-0.007 0.169-0.135 0.421-0.389 0.474-0.924 0-0.001 0-0.002 0-0.004 0.002-0.016 0.003-0.032 0.004-0.048 0.001-0.011 0.002-0.023 0.002-0.034 0-0.009 0.001-0.018 0.001-0.027 0.001-0.021 0.002-0.043 0.002-0.065 0-0.001 0-0.002 0-0.004 0.001-0.052 0-0.106-0.003-0.163-0.002-0.032-0.004-0.060-0.009-0.086 0-0.001-0.001-0.003-0.001-0.004-0.001-0.003-0.001-0.005-0.002-0.008-0.001-0.005-0.002-0.009-0.004-0.013 0-0.001 0-0.001-0.001-0.001-0.002-0.005-0.004-0.010-0.005-0.014 0 0 0 0 0-0.001-0.055-0.128-0.26-0.177-1.108-0.191-0.001 0-0.002 0-0.002 0v0c-0.346-0.006-0.798-0.006-1.391-0.004-1.039 0.004-1.613-1.016-1.797-1.41 0.251-1.389 0.977-2.379 2.17-3.051 0.023-0.013 0.018-0.023-0.009-0.031 0.233-0.141-2.82-0.004-4.225 1.782-1.247-0.31-2.333-0.289-3.269-0.069-0.18-0.005-0.404-0.027-0.67-0.083-0.623-0.564-1.514-1.606-1.562-2.85 0 0-0.003 0.002-0.008 0.006-0.001-0.012-0.002-0.024-0.002-0.036 0 0-1.897 1.458-1.613 5.434-0.001 0.064-0.002 0.125-0.004 0.184-0.514 0.696-0.768 1.282-0.787 1.411-0.455 0.926-0.917 2.32-1.292 4.437 0 0 0.263-0.833 0.79-1.777-0.388 1.188-0.693 3.036-0.514 5.808 0 0 0.047-0.615 0.215-1.5 0.131 1.719 0.704 3.841 2.152 6.337 2.78 4.791 7.052 7.211 11.775 7.582 0.839 0.069 1.689 0.071 2.544 0.006 0.079-0.006 0.157-0.011 0.236-0.018 0.968-0.068 1.942-0.214 2.914-0.449 13.287-3.212 11.842-19.256 11.842-19.256z"></path>
</symbol>
<symbol id="icon-dev-github" viewBox="0 0 32 32">
<title>dev-github</title>
<path d="M16 0.395c-8.836 0-16 7.163-16 16 0 7.069 4.585 13.067 10.942 15.182 0.8 0.148 1.094-0.347 1.094-0.77 0-0.381-0.015-1.642-0.022-2.979-4.452 0.968-5.391-1.888-5.391-1.888-0.728-1.849-1.776-2.341-1.776-2.341-1.452-0.993 0.11-0.973 0.11-0.973 1.606 0.113 2.452 1.649 2.452 1.649 1.427 2.446 3.743 1.739 4.656 1.33 0.143-1.034 0.558-1.74 1.016-2.14-3.554-0.404-7.29-1.777-7.29-7.907 0-1.747 0.625-3.174 1.649-4.295-0.166-0.403-0.714-2.030 0.155-4.234 0 0 1.344-0.43 4.401 1.64 1.276-0.355 2.645-0.532 4.005-0.539 1.359 0.006 2.729 0.184 4.008 0.539 3.054-2.070 4.395-1.64 4.395-1.64 0.871 2.204 0.323 3.831 0.157 4.234 1.026 1.12 1.647 2.548 1.647 4.295 0 6.145-3.743 7.498-7.306 7.895 0.574 0.497 1.085 1.47 1.085 2.963 0 2.141-0.019 3.864-0.019 4.391 0 0.426 0.288 0.925 1.099 0.768 6.354-2.118 10.933-8.113 10.933-15.18 0-8.837-7.164-16-16-16z"></path>
</symbol>
<symbol id="icon-dev-html5" viewBox="0 0 32 32">
<title>dev-html5</title>
<path d="M30.35 0h-28.7l2.558 28.662 11.789 3.338 11.797-3.337 2.556-28.663zM24.242 9.682h-13.087l0.312 3.541h12.46l-0.935 10.464-6.998 2.115-0.067-0.022-6.916-2.095-0.378-4.264h3.389l0.146 1.655 3.867 0.81 3.796-0.81 0.405-4.478h-11.856l-0.921-10.299h17.084l-0.301 3.383z"></path>
</symbol>
<symbol id="icon-dev-ie" viewBox="0 0 32 32">
<title>dev-ie</title>
<path d="M22.944 19.651h7.377c0.057-0.512 0.080-1.034 0.080-1.569 0-2.507-0.673-4.858-1.848-6.883 1.215-3.228 1.172-5.968-0.455-7.606-1.547-1.54-5.697-1.29-10.388 0.787-0.347-0.026-0.697-0.040-1.051-0.040-6.439 0-11.841 4.431-13.335 10.402 2.020-2.586 4.145-4.461 6.984-5.826-0.258 0.242-1.764 1.739-2.018 1.993-7.486 7.484-9.847 17.26-7.306 19.8 1.931 1.93 5.43 1.604 9.449-0.364 1.869 0.952 3.984 1.488 6.226 1.488 6.035 0 11.15-3.885 13.003-9.295h-7.433c-1.023 1.887-3.023 3.171-5.319 3.171s-4.296-1.284-5.319-3.171c-0.455-0.852-0.716-1.83-0.716-2.864v-0.023h12.071zM10.884 16.025c0.171-3.035 2.694-5.456 5.774-5.456s5.604 2.421 5.774 5.456h-11.548zM28.030 5.119c1.048 1.059 1.021 3.007 0.125 5.438-1.535-2.341-3.766-4.186-6.4-5.239 2.816-1.207 5.106-1.367 6.274-0.199zM2.921 30.227c-1.337-1.337-0.934-4.144 0.788-7.526 1.072 3.008 3.161 5.534 5.854 7.161-2.982 1.354-5.423 1.584-6.643 0.365z"></path>
</symbol>
<symbol id="icon-dev-javascript" viewBox="0 0 32 32">
<title>dev-javascript</title>
<path d="M0 0h32v32h-32v-32zM29.379 24.368c-0.233-1.46-1.184-2.687-4.004-3.831-0.981-0.46-2.072-0.78-2.396-1.52-0.121-0.44-0.14-0.68-0.061-0.94 0.2-0.861 1.22-1.12 2.020-0.88 0.52 0.16 1 0.56 1.301 1.2 1.379-0.901 1.379-0.901 2.34-1.5-0.36-0.56-0.539-0.801-0.781-1.040-0.84-0.94-1.959-1.42-3.779-1.379l-0.94 0.119c-0.901 0.22-1.76 0.7-2.28 1.34-1.52 1.721-1.081 4.721 0.759 5.961 1.82 1.36 4.481 1.659 4.821 2.94 0.32 1.56-1.16 2.060-2.621 1.88-1.081-0.24-1.68-0.781-2.34-1.781l-2.44 1.401c0.28 0.64 0.6 0.919 1.080 1.479 2.32 2.341 8.12 2.221 9.161-1.339 0.039-0.12 0.32-0.94 0.099-2.2l0.061 0.089v0.001zM17.401 14.708h-2.997c0 2.584-0.012 5.152-0.012 7.74 0 1.643 0.084 3.151-0.184 3.615-0.44 0.919-1.573 0.801-2.088 0.64-0.528-0.261-0.796-0.621-1.107-1.14-0.084-0.14-0.147-0.261-0.169-0.261l-2.433 1.5c0.407 0.84 1 1.563 1.765 2.023 1.14 0.68 2.672 0.9 4.276 0.54 1.044-0.301 1.944-0.921 2.415-1.881 0.68-1.24 0.536-2.76 0.529-4.461 0.016-2.739 0-5.479 0-8.239l0.005-0.075v-0.001z"></path>
</symbol>
<symbol id="icon-dev-jquery" viewBox="0 0 32 32">
<title>dev-jquery</title>
<path d="M31.213 22.898c-0.432 0.716-0.822 1.462-1.303 2.143-2.399 3.403-5.685 5.392-9.795 6.012-2.068 0.312-4.141 0.246-6.191-0.143-2.179-0.413-4.155-1.35-5.979-2.588-3.736-2.533-6.312-5.928-7.455-10.327-0.762-2.934-0.69-5.839 0.603-8.631 0.337-0.728 0.792-1.41 1.256-2.068 0.538-0.76 1.146-1.471 1.768-2.178-0.105 0.246-0.217 0.491-0.315 0.74-1.162 2.934-1.175 5.914-0.282 8.904 1.214 4.069 3.723 7.189 7.206 9.551 3.124 2.119 6.588 3.133 10.365 3.026 2.869-0.081 5.563-0.771 7.899-2.512 0.779-0.58 1.461-1.29 2.188-1.94 0.011 0.004 0.023 0.007 0.035 0.011z"></path>
<path d="M32 14.829c-0.235 0.463-0.439 0.933-0.7 1.37-1.678 2.805-4.164 4.406-7.38 4.911-1.652 0.259-3.304 0.211-4.932-0.107-1.179-0.231-2.279-0.739-3.313-1.358-2.994-1.792-5.126-4.281-6.016-7.698-0.759-2.911-0.355-5.651 1.468-8.117 0.357-0.482 0.695-0.977 1.042-1.466 0.012-0.016 0.031-0.028 0.073-0.065-0.013 0.064-0.013 0.105-0.029 0.139-1.322 2.867-1.215 5.75 0.146 8.531 2.131 4.354 5.674 6.868 10.491 7.477 2.703 0.342 5.22-0.257 7.4-1.954 0.624-0.486 1.154-1.091 1.75-1.663z"></path>
<path d="M18.916 0.75c-0.134 0.544-0.316 1.073-0.388 1.616-0.234 1.755 0.29 3.332 1.272 4.761 1.474 2.146 3.539 3.325 6.119 3.627 0.822 0.096 1.638 0.090 2.446-0.102 0.916-0.218 1.281-0.438 2.569-1.526-0.079 0.151-0.119 0.241-0.171 0.326-1.212 1.991-2.982 2.984-5.316 3.079-3.995 0.162-7.291-2.857-8.030-5.965-0.437-1.838-0.147-3.546 0.971-5.092 0.176-0.242 0.353-0.484 0.528-0.724z"></path>
</symbol>
<symbol id="icon-dev-npm" viewBox="0 0 32 32">
<title>dev-npm</title>
<path d="M0 0v32h32v-32h-32zM26 26h-4v-16h-6v16h-10v-20h20v20z"></path>
</symbol>
<symbol id="icon-dev-sass" viewBox="0 0 32 32">
<title>dev-sass</title>
<path d="M15.995 0.010c8.834 0 15.995 7.161 15.995 15.995s-7.161 15.995-15.995 15.995c-8.834 0-15.995-7.161-15.995-15.995s7.161-15.995 15.995-15.995zM26.028 6.856c-0.724-2.841-5.434-3.775-9.893-2.191-2.653 0.943-5.525 2.422-7.59 4.354-2.455 2.296-2.847 4.295-2.685 5.131 0.569 2.947 4.607 4.873 6.267 6.303v0.008c-0.489 0.241-4.072 2.055-4.91 3.908-0.885 1.956 0.14 3.359 0.819 3.548 2.104 0.585 4.263-0.467 5.423-2.198 1.119-1.67 1.026-3.826 0.54-4.899 0.671-0.177 1.453-0.256 2.447-0.14 2.806 0.328 3.357 2.080 3.252 2.813-0.106 0.733-0.694 1.136-0.891 1.258s-0.257 0.164-0.24 0.254c0.024 0.132 0.115 0.127 0.282 0.098 0.231-0.039 1.474-0.596 1.527-1.949 0.068-1.719-1.579-3.641-4.495-3.591-1.201 0.021-1.956 0.135-2.501 0.338-0.041-0.046-0.082-0.091-0.124-0.137-1.803-1.923-5.135-3.283-4.994-5.869 0.052-0.94 0.379-3.415 6.403-6.417 4.936-2.459 8.887-1.782 9.57-0.283 0.975 2.143-2.112 6.126-7.237 6.7-1.953 0.219-2.981-0.538-3.237-0.82-0.269-0.296-0.309-0.31-0.41-0.254-0.164 0.091-0.060 0.353 0 0.509 0.153 0.398 0.781 1.104 1.852 1.456 0.941 0.309 3.234 0.479 6.007-0.594 3.105-1.201 5.53-4.543 4.818-7.336zM12.816 21.333c0.233 0.861 0.207 1.664-0.033 2.391-0.027 0.080-0.056 0.16-0.088 0.239s-0.066 0.157-0.104 0.234c-0.185 0.384-0.434 0.744-0.738 1.077-0.93 1.014-2.228 1.397-2.785 1.074-0.601-0.349-0.3-1.778 0.778-2.917 1.159-1.225 2.827-2.013 2.827-2.013l-0.003-0.005c0.048-0.026 0.097-0.053 0.146-0.080z"></path>
</symbol>
<symbol id="icon-dev-vue" viewBox="0 0 32 32">
<title>dev-vue</title>
<path stroke-linejoin="miter" stroke-linecap="square" stroke-miterlimit="1.41421" stroke-width="0.5" d="M16 8.743l3.596-6.228h11.975l-15.571 26.97-15.571-26.97h11.975l3.596 6.228zM2.115 3.488l13.885 24.051 13.885-24.051h-9.727l-3.829 6.631h-0.658l-3.829-6.631h-9.727z"></path>
<path d="M19.596 2.515l-3.596 6.228-3.596-6.228h-5.748l9.344 16.182 9.344-16.182h-5.748z"></path>
</symbol>
<symbol id="icon-display" viewBox="0 0 32 32">
<title>display</title>
<path d="M0 2v20h32v-20h-32zM30 20h-28v-16h28v16zM21 24h-10l-1 4-2 2h16l-2-2z"></path>
</symbol>
<symbol id="icon-keyboard" viewBox="0 0 36 32">
<title>keyboard</title>
<path d="M34 4h-32c-1.1 0-2 0.9-2 2v20c0 1.1 0.9 2 2 2h32c1.1 0 2-0.9 2-2v-20c0-1.1-0.9-2-2-2zM20 8h4v4h-4v-4zM26 14v4h-4v-4h4zM14 8h4v4h-4v-4zM20 14v4h-4v-4h4zM8 8h4v4h-4v-4zM14 14v4h-4v-4h4zM4 8h2v4h-2v-4zM4 14h4v4h-4v-4zM6 24h-2v-4h2v4zM24 24h-16v-4h16v4zM32 24h-6v-4h6v4zM32 18h-4v-4h4v4zM32 12h-6v-4h6v4z"></path>
</symbol>
<symbol id="icon-laptop" viewBox="0 0 32 32">
<title>laptop</title>
<path d="M28 22v-16c0-1.1-0.9-2-2-2h-20c-1.1 0-2 0.9-2 2v16h-4v6h32v-6h-4zM20 26h-8v-2h8v2zM26 22h-20v-15.996c0.001-0.001 0.002-0.003 0.004-0.004h19.993c0.001 0.001 0.003 0.002 0.004 0.004v15.996z"></path>
</symbol>
<symbol id="icon-location" viewBox="0 0 32 32">
<title>location</title>
<path d="M16 0c-5.523 0-10 4.477-10 10 0 10 10 22 10 22s10-12 10-22c0-5.523-4.477-10-10-10zM16 16c-3.314 0-6-2.686-6-6s2.686-6 6-6 6 2.686 6 6-2.686 6-6 6z"></path>
</symbol>
<symbol id="icon-mobile" viewBox="0 0 32 32">
<title>mobile</title>
<path d="M23 0h-14c-1.65 0-3 1.35-3 3v26c0 1.65 1.35 3 3 3h14c1.65 0 3-1.35 3-3v-26c0-1.65-1.35-3-3-3zM12 1.5h8v1h-8v-1zM16 30c-1.105 0-2-0.895-2-2s0.895-2 2-2 2 0.895 2 2-0.895 2-2 2zM24 24h-16v-20h16v20z"></path>
</symbol>
<symbol id="icon-mobile2" viewBox="0 0 32 32">
<title>mobile2</title>
<path d="M24 0h-18c-1.1 0-2 0.9-2 2v28c0 1.1 0.9 2 2 2h18c1.1 0 2-0.9 2-2v-28c0-1.1-0.9-2-2-2zM15 30.556c-0.859 0-1.556-0.697-1.556-1.556s0.697-1.556 1.556-1.556 1.556 0.697 1.556 1.556-0.697 1.556-1.556 1.556zM24 26h-18v-22h18v22z"></path>
</symbol>
<symbol id="icon-social-behance" viewBox="0 0 32 32">
<title>social-behance</title>
<path d="M12.631 14.019c0.406-0.294 0.6-0.781 0.6-1.456 0-0.375-0.063-0.681-0.194-0.919-0.137-0.238-0.313-0.425-0.544-0.556-0.225-0.137-0.481-0.231-0.775-0.281-0.287-0.056-0.594-0.081-0.906-0.081h-3.294v3.737h3.563c0.625 0.006 1.144-0.144 1.55-0.444z"></path>
<path d="M13.188 17.394c-0.463-0.35-1.075-0.525-1.838-0.525h-3.831v4.406h3.756c0.35 0 0.675-0.031 0.988-0.1s0.594-0.175 0.831-0.337c0.238-0.156 0.431-0.369 0.575-0.637s0.213-0.619 0.213-1.038c0-0.825-0.231-1.413-0.694-1.769z"></path>
<path d="M29 0h-26c-1.65 0-3 1.35-3 3v26c0 1.65 1.35 3 3 3h26c1.65 0 3-1.35 3-3v-26c0-1.65-1.35-3-3-3zM20.975 8.419h6.481v1.581h-6.481v-1.581zM16.925 21.45c-0.313 0.594-0.738 1.075-1.262 1.45-0.531 0.375-1.137 0.65-1.819 0.831-0.675 0.181-1.375 0.269-2.088 0.269h-7.756v-15.994h7.537c0.762 0 1.456 0.069 2.088 0.2 0.625 0.131 1.162 0.356 1.613 0.662 0.444 0.306 0.794 0.713 1.044 1.219 0.244 0.5 0.369 1.131 0.369 1.875 0 0.806-0.181 1.475-0.55 2.012s-0.906 0.975-1.631 1.319c0.988 0.281 1.713 0.781 2.194 1.487 0.488 0.712 0.725 1.569 0.725 2.569 0.006 0.819-0.15 1.519-0.462 2.1zM29.981 18.975h-8.356c0 0.913 0.313 1.781 0.788 2.25 0.475 0.462 1.163 0.7 2.056 0.7 0.644 0 1.194-0.163 1.663-0.488 0.462-0.325 0.744-0.669 0.85-1.025h2.8c-0.45 1.394-1.131 2.387-2.063 2.988-0.919 0.6-2.044 0.9-3.35 0.9-0.913 0-1.731-0.15-2.469-0.438-0.738-0.294-1.35-0.706-1.869-1.244-0.506-0.538-0.894-1.181-1.175-1.931-0.275-0.744-0.419-1.575-0.419-2.469 0-0.869 0.144-1.675 0.425-2.425 0.288-0.75 0.688-1.4 1.212-1.938 0.525-0.544 1.15-0.975 1.875-1.294 0.725-0.313 1.525-0.469 2.413-0.469 0.981 0 1.837 0.188 2.575 0.575 0.731 0.381 1.331 0.894 1.806 1.537s0.806 1.375 1.019 2.2c0.206 0.813 0.275 1.669 0.219 2.569z"></path>
<path d="M24.269 14.494c-0.506 0-0.931 0.088-1.262 0.262s-0.6 0.387-0.806 0.637c-0.206 0.256-0.344 0.525-0.425 0.819-0.081 0.281-0.131 0.538-0.144 0.762h5.175c-0.075-0.813-0.356-1.412-0.731-1.831-0.387-0.425-1.025-0.65-1.806-0.65z"></path>
</symbol>
<symbol id="icon-social-behance-o" viewBox="0 0 32 32">
<title>social-behance-o</title>
<path d="M9.281 6.412c0.944 0 1.794 0.081 2.569 0.25 0.775 0.162 1.431 0.438 1.988 0.813 0.55 0.375 0.975 0.875 1.287 1.5 0.3 0.619 0.45 1.394 0.45 2.313 0 0.994-0.225 1.819-0.675 2.481-0.456 0.662-1.119 1.2-2.006 1.625 1.213 0.35 2.106 0.962 2.706 1.831 0.6 0.875 0.887 1.925 0.887 3.163 0 1-0.194 1.856-0.575 2.581-0.387 0.731-0.912 1.325-1.556 1.781-0.65 0.462-1.4 0.8-2.237 1.019-0.831 0.219-1.688 0.331-2.575 0.331h-9.544v-19.688h9.281zM8.719 14.363c0.769 0 1.406-0.181 1.906-0.55 0.5-0.363 0.738-0.963 0.738-1.787 0-0.456-0.081-0.838-0.244-1.131-0.169-0.294-0.387-0.525-0.669-0.688-0.275-0.169-0.588-0.281-0.956-0.344-0.356-0.069-0.731-0.1-1.113-0.1h-4.050v4.6h4.388zM8.956 22.744c0.425 0 0.831-0.038 1.213-0.125 0.387-0.087 0.731-0.219 1.019-0.419 0.287-0.194 0.531-0.45 0.706-0.788 0.175-0.331 0.256-0.756 0.256-1.275 0-1.012-0.287-1.738-0.856-2.175-0.569-0.431-1.325-0.644-2.262-0.644h-4.7v5.419h4.625z"></path>
<path d="M22.663 22.675c0.587 0.575 1.431 0.863 2.531 0.863 0.788 0 1.475-0.2 2.044-0.6s0.913-0.825 1.044-1.262h3.45c-0.556 1.719-1.394 2.938-2.544 3.675-1.131 0.738-2.519 1.113-4.125 1.113-1.125 0-2.131-0.181-3.038-0.538-0.906-0.363-1.663-0.869-2.3-1.531-0.619-0.663-1.106-1.45-1.45-2.375-0.337-0.919-0.512-1.938-0.512-3.038 0-1.069 0.175-2.063 0.525-2.981 0.356-0.925 0.844-1.719 1.494-2.387s1.413-1.2 2.313-1.588c0.894-0.387 1.881-0.581 2.975-0.581 1.206 0 2.262 0.231 3.169 0.706 0.9 0.469 1.644 1.1 2.225 1.887s0.994 1.694 1.25 2.706c0.256 1.012 0.344 2.069 0.275 3.175h-10.294c0 1.119 0.375 2.188 0.969 2.756zM27.156 15.188c-0.462-0.512-1.256-0.794-2.212-0.794-0.625 0-1.144 0.106-1.556 0.319-0.406 0.213-0.738 0.475-0.994 0.787-0.25 0.313-0.425 0.65-0.525 1.006-0.1 0.344-0.163 0.663-0.181 0.938h6.375c-0.094-1-0.438-1.738-0.906-2.256z"></path>
<path d="M20.887 8h7.981v1.944h-7.981v-1.944z"></path>
</symbol>
<symbol id="icon-social-dribbble" viewBox="0 0 32 32">
<title>social-dribbble</title>
<path d="M16 32c-8.825 0-16-7.175-16-16s7.175-16 16-16c8.825 0 16 7.175 16 16s-7.175 16-16 16v0zM29.494 18.188c-0.469-0.15-4.231-1.269-8.512-0.581 1.788 4.912 2.512 8.912 2.656 9.744 3.063-2.075 5.25-5.356 5.856-9.163v0zM21.337 28.6c-0.206-1.2-0.994-5.375-2.913-10.363-0.031 0.012-0.063 0.019-0.087 0.031-7.713 2.688-10.481 8.031-10.725 8.531 2.319 1.806 5.231 2.887 8.387 2.887 1.894 0 3.7-0.387 5.338-1.087v0zM5.844 25.156c0.313-0.531 4.063-6.738 11.106-9.019 0.175-0.056 0.356-0.113 0.538-0.162-0.344-0.775-0.719-1.556-1.106-2.319-6.819 2.044-13.444 1.956-14.044 1.95-0.006 0.137-0.006 0.275-0.006 0.419 0 3.506 1.331 6.712 3.512 9.131v0zM2.625 13.219c0.612 0.006 6.244 0.031 12.637-1.662-2.262-4.025-4.706-7.412-5.069-7.906-3.825 1.806-6.688 5.331-7.569 9.569v0zM12.8 2.731c0.375 0.506 2.863 3.888 5.1 8 4.863-1.819 6.919-4.588 7.163-4.938-2.413-2.144-5.587-3.444-9.063-3.444-1.1 0.006-2.175 0.138-3.2 0.381v0zM26.581 7.381c-0.288 0.388-2.581 3.325-7.631 5.388 0.319 0.65 0.625 1.313 0.906 1.981 0.1 0.238 0.2 0.469 0.294 0.706 4.55-0.569 9.069 0.344 9.519 0.438-0.031-3.225-1.188-6.188-3.087-8.512v0z"></path>
</symbol>
<symbol id="icon-social-facebook" viewBox="0 0 32 32">
<title>social-facebook</title>
<path d="M29 0h-26c-1.65 0-3 1.35-3 3v26c0 1.65 1.35 3 3 3h13v-14h-4v-4h4v-2c0-3.306 2.694-6 6-6h4v4h-4c-1.1 0-2 0.9-2 2v2h6l-1 4h-5v14h9c1.65 0 3-1.35 3-3v-26c0-1.65-1.35-3-3-3z"></path>
</symbol>
<symbol id="icon-social-facebook-o" viewBox="0 0 32 32">
<title>social-facebook-o</title>
<path d="M19 6h5v-6h-5c-3.86 0-7 3.14-7 7v3h-4v6h4v16h6v-16h5l1-6h-6v-3c0-0.542 0.458-1 1-1z"></path>
</symbol>
<symbol id="icon-social-instagram" viewBox="0 0 32 32">
<title>social-instagram</title>
<path d="M0 0v32h32v-32h-32zM26.667 3.556c0.981 0 1.777 0.796 1.777 1.777 0 0.982-0.796 1.778-1.777 1.778s-1.778-0.796-1.778-1.778c0-0.981 0.796-1.777 1.778-1.777zM16 7.111c4.908 0 8.889 3.981 8.889 8.889s-3.981 8.889-8.889 8.889c-4.908 0-8.889-3.981-8.889-8.889s3.981-8.889 8.889-8.889zM16 10.667c-2.926 0-5.333 2.407-5.333 5.333s2.407 5.333 5.333 5.333c2.926 0 5.333-2.407 5.333-5.333s-2.407-5.333-5.333-5.333z"></path>
</symbol>
<symbol id="icon-social-linkedin" viewBox="0 0 32 32">
<title>social-linkedin</title>
<path d="M29 0h-26c-1.65 0-3 1.35-3 3v26c0 1.65 1.35 3 3 3h26c1.65 0 3-1.35 3-3v-26c0-1.65-1.35-3-3-3zM12 26h-4v-14h4v14zM10 10c-1.106 0-2-0.894-2-2s0.894-2 2-2c1.106 0 2 0.894 2 2s-0.894 2-2 2zM26 26h-4v-8c0-1.106-0.894-2-2-2s-2 0.894-2 2v8h-4v-14h4v2.481c0.825-1.131 2.087-2.481 3.5-2.481 2.488 0 4.5 2.238 4.5 5v9z"></path>
</symbol>
<symbol id="icon-social-linkedin-o" viewBox="0 0 32 32">
<title>social-linkedin-o</title>
<path d="M12 12h5.535v2.837h0.079c0.77-1.381 2.655-2.837 5.464-2.837 5.842 0 6.922 3.637 6.922 8.367v9.633h-5.769v-8.54c0-2.037-0.042-4.657-3.001-4.657-3.005 0-3.463 2.218-3.463 4.509v8.688h-5.767v-18z"></path>
<path d="M2 12h6v18h-6v-18z"></path>
<path d="M8 7c0 1.657-1.343 3-3 3s-3-1.343-3-3c0-1.657 1.343-3 3-3s3 1.343 3 3z"></path>
</symbol>
<symbol id="icon-social-twitter" viewBox="0 0 32 32">
<title>social-twitter</title>
<path d="M32 7.075c-1.175 0.525-2.444 0.875-3.769 1.031 1.356-0.813 2.394-2.1 2.887-3.631-1.269 0.75-2.675 1.3-4.169 1.594-1.2-1.275-2.906-2.069-4.794-2.069-3.625 0-6.563 2.938-6.563 6.563 0 0.512 0.056 1.012 0.169 1.494-5.456-0.275-10.294-2.888-13.531-6.862-0.563 0.969-0.887 2.1-0.887 3.3 0 2.275 1.156 4.287 2.919 5.463-1.075-0.031-2.087-0.331-2.975-0.819 0 0.025 0 0.056 0 0.081 0 3.181 2.263 5.838 5.269 6.437-0.55 0.15-1.131 0.231-1.731 0.231-0.425 0-0.831-0.044-1.237-0.119 0.838 2.606 3.263 4.506 6.131 4.563-2.25 1.762-5.075 2.813-8.156 2.813-0.531 0-1.050-0.031-1.569-0.094 2.913 1.869 6.362 2.95 10.069 2.95 12.075 0 18.681-10.006 18.681-18.681 0-0.287-0.006-0.569-0.019-0.85 1.281-0.919 2.394-2.075 3.275-3.394z"></path>
</symbol>
<symbol id="icon-a-pen" viewBox="0 0 32 32">
<title>a-pen</title>
<path d="M31.818 9.122l-8.939-8.939c-0.292-0.292-0.676-0.226-0.855 0.146l-1.199 2.497 8.35 8.35 2.497-1.199c0.372-0.178 0.438-0.563 0.146-0.855z"></path>
<path d="M19.231 4.231l-8.231 0.686c-0.547 0.068-1.002 0.184-1.159 0.899-0 0.001-0 0.001-0.001 0.002-2.232 10.721-9.84 21.183-9.84 21.183l1.793 1.793 8.5-8.5c-0.187-0.392-0.293-0.83-0.293-1.293 0-1.657 1.343-3 3-3s3 1.343 3 3-1.343 3-3 3c-0.463 0-0.902-0.105-1.293-0.293l-8.5 8.5 1.793 1.793c0 0 10.462-7.608 21.183-9.84 0.001-0 0.001-0 0.002-0.001 0.714-0.157 0.831-0.612 0.898-1.159l0.686-8.231-8.538-8.539z"></path>
</symbol>
<symbol id="icon-a-link" viewBox="0 0 32 32">
<title>a-link</title>
<path d="M13.757 19.868c-0.416 0-0.832-0.159-1.149-0.476-2.973-2.973-2.973-7.81 0-10.783l6-6c1.44-1.44 3.355-2.233 5.392-2.233s3.951 0.793 5.392 2.233c2.973 2.973 2.973 7.81 0 10.783l-2.743 2.743c-0.635 0.635-1.663 0.635-2.298 0s-0.635-1.663 0-2.298l2.743-2.743c1.706-1.706 1.706-4.481 0-6.187-0.826-0.826-1.925-1.281-3.094-1.281s-2.267 0.455-3.094 1.281l-6 6c-1.706 1.706-1.706 4.481 0 6.187 0.635 0.635 0.635 1.663 0 2.298-0.317 0.317-0.733 0.476-1.149 0.476z"></path>
<path d="M8 31.625c-2.037 0-3.952-0.793-5.392-2.233-2.973-2.973-2.973-7.81 0-10.783l2.743-2.743c0.635-0.635 1.664-0.635 2.298 0s0.635 1.663 0 2.298l-2.743 2.743c-1.706 1.706-1.706 4.481 0 6.187 0.826 0.826 1.925 1.281 3.094 1.281s2.267-0.455 3.094-1.281l6-6c1.706-1.706 1.706-4.481 0-6.187-0.635-0.635-0.635-1.663 0-2.298s1.663-0.635 2.298 0c2.973 2.973 2.973 7.81 0 10.783l-6 6c-1.44 1.44-3.355 2.233-5.392 2.233z"></path>
</symbol>
<symbol id="icon-a-file-pdf" viewBox="0 0 32 32">
<title>a-file-pdf</title>
<path d="M26.313 18.421c-0.427-0.42-1.372-0.643-2.812-0.662-0.974-0.011-2.147 0.075-3.38 0.248-0.552-0.319-1.122-0.665-1.568-1.083-1.202-1.122-2.205-2.68-2.831-4.394 0.041-0.16 0.075-0.301 0.108-0.444 0 0 0.677-3.846 0.498-5.146-0.025-0.178-0.040-0.23-0.088-0.369l-0.059-0.151c-0.184-0.425-0.545-0.875-1.111-0.85l-0.341-0.011c-0.631 0-1.146 0.323-1.281 0.805-0.411 1.514 0.013 3.778 0.781 6.711l-0.197 0.478c-0.55 1.34-1.238 2.689-1.846 3.88l-0.079 0.155c-0.639 1.251-1.22 2.313-1.745 3.213l-0.543 0.287c-0.040 0.021-0.97 0.513-1.188 0.645-1.852 1.106-3.079 2.361-3.282 3.357-0.065 0.318-0.017 0.725 0.313 0.913l0.525 0.264c0.228 0.114 0.468 0.172 0.714 0.172 1.319 0 2.85-1.643 4.959-5.324 2.435-0.793 5.208-1.452 7.638-1.815 1.852 1.043 4.129 1.767 5.567 1.767 0.255 0 0.475-0.024 0.654-0.072 0.276-0.073 0.508-0.23 0.65-0.444 0.279-0.42 0.335-0.998 0.26-1.59-0.023-0.176-0.163-0.393-0.315-0.541zM6.614 25.439c0.241-0.658 1.192-1.958 2.6-3.111 0.088-0.072 0.306-0.276 0.506-0.466-1.472 2.348-2.458 3.283-3.106 3.577zM14.951 6.24c0.424 0 0.665 1.069 0.685 2.070s-0.214 1.705-0.505 2.225c-0.241-0.77-0.357-1.984-0.357-2.778 0 0-0.018-1.517 0.177-1.517v0zM12.464 19.922c0.295-0.529 0.603-1.086 0.917-1.677 0.765-1.447 1.249-2.58 1.609-3.511 0.716 1.303 1.608 2.41 2.656 3.297 0.131 0.111 0.269 0.222 0.415 0.333-2.132 0.422-3.974 0.935-5.596 1.558v0zM25.903 19.802c-0.13 0.081-0.502 0.128-0.741 0.128-0.772 0-1.727-0.353-3.066-0.927 0.515-0.038 0.986-0.057 1.409-0.057 0.774 0 1.004-0.003 1.761 0.19s0.767 0.585 0.637 0.667v0z"></path>
<path d="M28.681 7.159c-0.694-0.947-1.662-2.053-2.724-3.116s-2.169-2.030-3.116-2.724c-1.612-1.182-2.393-1.319-2.841-1.319h-15.5c-1.378 0-2.5 1.121-2.5 2.5v27c0 1.378 1.121 2.5 2.5 2.5h23c1.378 0 2.5-1.122 2.5-2.5v-19.5c0-0.448-0.137-1.23-1.319-2.841v0zM24.543 5.457c0.959 0.959 1.712 1.825 2.268 2.543h-4.811v-4.811c0.718 0.556 1.584 1.309 2.543 2.268v0zM28 29.5c0 0.271-0.229 0.5-0.5 0.5h-23c-0.271 0-0.5-0.229-0.5-0.5v-27c0-0.271 0.229-0.5 0.5-0.5 0 0 15.499-0 15.5 0v7c0 0.552 0.448 1 1 1h7v19.5z"></path>
</symbol>
</defs>
</svg>
