<?xml version="1.0" encoding="UTF-8" standalone="no"?><!DOCTYPE svg PUBLIC "-//W3C//DTD SVG 1.1//EN" "http://www.w3.org/Graphics/SVG/1.1/DTD/svg11.dtd"><svg width="100%" height="100%" viewBox="0 0 461 308" version="1.1" xmlns="http://www.w3.org/2000/svg" xmlns:xlink="http://www.w3.org/1999/xlink" xml:space="preserve" xmlns:serif="http://www.serif.com/" style="fill-rule:evenodd;clip-rule:evenodd;stroke-linejoin:round;stroke-miterlimit:1.41421;"><g id="about---portfolio" serif:id="about / portfolio"><g><path d="M44.074,63.399l-1.712,11.427l5.539,3.542l7.165,-3.204l-10.992,-11.765Z" style="fill:#fab35d;fill-opacity:0.498039;fill-rule:nonzero;stroke:#fab35d;stroke-width:0.24px;"/><path d="M28.359,66.585l14.003,8.241l1.712,-11.427l-15.715,3.186Z" style="fill:#fab35d;fill-opacity:0.498039;fill-rule:nonzero;stroke:#fab35d;stroke-width:0.24px;"/><path d="M48.943,68.61l1.962,-3.394l4.161,9.948l-6.123,-6.554Z" style="fill:#fab35d;fill-opacity:0.498039;fill-rule:nonzero;stroke:#fab35d;stroke-width:0.24px;"/><path d="M58.885,65.116l-7.98,0.1l4.161,9.948l3.819,-10.048Z" style="fill:#fab35d;fill-opacity:0.498039;fill-rule:nonzero;stroke:#fab35d;stroke-width:0.24px;"/><path d="M60.745,67.867l-1.86,-2.751l-0.73,1.92l2.59,0.831Z" style="fill:#fab35d;fill-opacity:0.498039;fill-rule:nonzero;stroke:#fab35d;stroke-width:0.24px;"/><path d="M44.305,60.2l6.6,5.016l-1.962,3.394l-4.869,-5.211l0.231,-3.199Z" style="fill:#fab35d;fill-opacity:0.498039;fill-rule:nonzero;stroke:#fab35d;stroke-width:0.24px;"/><path d="M28.763,64.284l15.542,-4.084l-0.231,3.199l-12.666,2.568l-2.645,-1.683Z" style="fill:#fab35d;fill-opacity:0.498039;fill-rule:nonzero;stroke:#fab35d;stroke-width:0.24px;"/><path d="M35.704,84.166l7.332,-8.909l4.865,3.111l-12.197,5.798Z" style="fill:#fab35d;fill-opacity:0.498039;fill-rule:nonzero;stroke:#fab35d;stroke-width:0.24px;"/><path d="M42.388,95.908l5.513,-17.54l-12.197,5.798l6.684,11.742Z" style="fill:#fab35d;fill-opacity:0.498039;fill-rule:nonzero;stroke:#fab35d;stroke-width:0.24px;"/></g><g><path d="M413.392,125.287l2.075,13.853l-6.715,4.293l-8.686,-3.884l13.326,-14.262Z" style="fill:#fab35d;fill-opacity:0.498039;fill-rule:nonzero;stroke:#fab35d;stroke-width:0.24px;"/><path d="M432.441,129.15l-16.975,9.99l-2.074,-13.853l19.049,3.863Z" style="fill:#fab35d;fill-opacity:0.498039;fill-rule:nonzero;stroke:#fab35d;stroke-width:0.24px;"/><path d="M407.489,131.605l-2.378,-4.114l-5.045,12.059l7.423,-7.945Z" style="fill:#fab35d;fill-opacity:0.498039;fill-rule:nonzero;stroke:#fab35d;stroke-width:0.24px;"/><path d="M395.437,127.369l9.673,0.122l-5.044,12.058l-4.629,-12.18Z" style="fill:#fab35d;fill-opacity:0.498039;fill-rule:nonzero;stroke:#fab35d;stroke-width:0.24px;"/><path d="M393.182,130.703l2.255,-3.334l0.884,2.327l-3.139,1.007Z" style="fill:#fab35d;fill-opacity:0.498039;fill-rule:nonzero;stroke:#fab35d;stroke-width:0.24px;"/><path d="M413.111,121.41l-8,6.081l2.378,4.113l5.903,-6.317l-0.281,-3.877Z" style="fill:#fab35d;fill-opacity:0.498039;fill-rule:nonzero;stroke:#fab35d;stroke-width:0.24px;"/><path d="M431.951,126.36l-18.841,-4.95l0.282,3.877l15.353,3.113l3.206,-2.04Z" style="fill:#fab35d;fill-opacity:0.498039;fill-rule:nonzero;stroke:#fab35d;stroke-width:0.24px;"/><path d="M423.537,150.461l-8.887,-10.799l-5.898,3.771l14.785,7.028Z" style="fill:#fab35d;fill-opacity:0.498039;fill-rule:nonzero;stroke:#fab35d;stroke-width:0.24px;"/><path d="M415.434,164.696l-6.682,-21.263l14.785,7.028l-8.103,14.235Z" style="fill:#fab35d;fill-opacity:0.498039;fill-rule:nonzero;stroke:#fab35d;stroke-width:0.24px;"/></g><g><g><path d="M303.55,243.877l6.915,-9.951l1.975,7.72l-8.89,2.231Z" style="fill:none;stroke:#fab35d;stroke-width:0.24px;"/><path d="M320.086,232.792l-9.621,1.134l2.231,8.89l3.43,-4.653l3.96,-5.371Z" style="fill:none;stroke:#fab35d;stroke-width:0.24px;"/><path d="M320.086,234.585l-1.189,-0.18l-3.018,4.094l4.207,-3.914Z" style="fill:none;stroke:#fab35d;stroke-width:0.24px;"/><path d="M312.696,242.816l-1.244,5.451l0,1.427l4.427,3.366l-3.183,-10.244Z" style="fill:none;stroke:#fab35d;stroke-width:0.24px;"/><path d="M303.55,243.877l7.902,4.39l1.244,-5.451l-0.291,-1.162l-8.855,2.223Z" style="fill:none;stroke:#fab35d;stroke-width:0.24px;"/><path d="M303.898,245.112l-0.348,-1.235l7.902,4.39l-7.554,-3.155Z" style="fill:none;stroke:#fab35d;stroke-width:0.24px;"/><path d="M301.566,239.13l4.808,0.683l-2.824,4.064l-1.984,-4.747Z" style="fill:none;stroke:#fab35d;stroke-width:0.24px;"/><path d="M299.645,241.243l1.921,-2.113l0.883,2.113l-2.804,0Z" style="fill:none;stroke:#fab35d;stroke-width:0.24px;"/></g></g><g><g><path d="M273.273,233.405l4.693,-6.754l1.341,5.239l-6.034,1.515Z" style="fill:#fab35d;fill-opacity:0.498039;fill-rule:nonzero;stroke:#fab35d;stroke-width:0.24px;"/><path d="M284.496,225.881l-6.53,0.77l1.515,6.034l2.328,-3.158l2.687,-3.646Z" style="fill:#fab35d;fill-opacity:0.498039;fill-rule:nonzero;stroke:#fab35d;stroke-width:0.24px;"/><path d="M284.496,227.098l-0.807,-0.122l-2.048,2.779l2.855,-2.657Z" style="fill:#fab35d;fill-opacity:0.498039;fill-rule:nonzero;stroke:#fab35d;stroke-width:0.24px;"/><path d="M279.481,232.685l-0.845,3.699l0,0.968l3.005,2.285l-2.16,-6.952Z" style="fill:#fab35d;fill-opacity:0.498039;fill-rule:nonzero;stroke:#fab35d;stroke-width:0.24px;"/><path d="M273.273,233.405l5.363,2.979l0.845,-3.699l-0.198,-0.789l-6.01,1.509Z" style="fill:#fab35d;fill-opacity:0.498039;fill-rule:nonzero;stroke:#fab35d;stroke-width:0.24px;"/><path d="M273.509,234.243l-0.236,-0.838l5.363,2.979l-5.127,-2.141Z" style="fill:#fab35d;fill-opacity:0.498039;fill-rule:nonzero;stroke:#fab35d;stroke-width:0.24px;"/><path d="M271.926,230.183l3.264,0.463l-1.917,2.759l-1.347,-3.222Z" style="fill:#fab35d;fill-opacity:0.498039;fill-rule:nonzero;stroke:#fab35d;stroke-width:0.24px;"/><path d="M270.623,231.617l1.303,-1.434l0.6,1.434l-1.903,0Z" style="fill:#fab35d;fill-opacity:0.498039;fill-rule:nonzero;stroke:#fab35d;stroke-width:0.24px;"/></g></g><g><g><path d="M293.393,215.743l2.614,-3.762l0.747,2.918l-3.361,0.844Z" style="fill:#fab35d;fill-rule:nonzero;stroke:#fab35d;stroke-width:0.24px;"/><path d="M299.645,211.552l-3.638,0.429l0.844,3.361l1.297,-1.759l1.497,-2.031Z" style="fill:#fab35d;fill-rule:nonzero;stroke:#fab35d;stroke-width:0.24px;"/><path d="M299.645,212.23l-0.45,-0.068l-1.141,1.548l1.591,-1.48Z" style="fill:#fab35d;fill-rule:nonzero;stroke:#fab35d;stroke-width:0.24px;"/><path d="M296.851,215.342l-0.471,2.061l0,0.539l1.674,1.273l-1.203,-3.873Z" style="fill:#fab35d;fill-rule:nonzero;stroke:#fab35d;stroke-width:0.24px;"/><path d="M293.393,215.743l2.987,1.66l0.471,-2.061l-0.11,-0.439l-3.348,0.84Z" style="fill:#fab35d;fill-rule:nonzero;stroke:#fab35d;stroke-width:0.24px;"/><path d="M293.524,216.21l-0.131,-0.467l2.987,1.66l-2.856,-1.193Z" style="fill:#fab35d;fill-rule:nonzero;stroke:#fab35d;stroke-width:0.24px;"/><path d="M292.642,213.948l1.818,0.258l-1.067,1.537l-0.751,-1.795Z" style="fill:#fab35d;fill-rule:nonzero;stroke:#fab35d;stroke-width:0.24px;"/><path d="M291.916,214.747l0.726,-0.799l0.334,0.799l-1.06,0Z" style="fill:#fab35d;fill-rule:nonzero;stroke:#fab35d;stroke-width:0.24px;"/></g></g></g></svg>