<?xml version="1.0" encoding="UTF-8" standalone="no"?><!DOCTYPE svg PUBLIC "-//W3C//DTD SVG 1.1//EN" "http://www.w3.org/Graphics/SVG/1.1/DTD/svg11.dtd"><svg width="100%" height="100%" viewBox="0 0 461 308" version="1.1" xmlns="http://www.w3.org/2000/svg" xmlns:xlink="http://www.w3.org/1999/xlink" xml:space="preserve" xmlns:serif="http://www.serif.com/" style="fill-rule:evenodd;clip-rule:evenodd;stroke-linejoin:round;stroke-miterlimit:1.41421;"><g id="contact---services" serif:id="contact / services"><path d="M401.02,166.12l15.463,-16.277l-8.359,-17.608l27.029,-8.436l-4.336,-2.037l4.336,-2.327l25.647,25.647l0,79.816l-59.78,-58.778Z" style="fill:#fab35d;fill-opacity:0.0117647;"/><path d="M416.484,149.843l44.316,44.316l0,30.739l-59.78,-58.778l15.464,-16.277Z" style="fill:#fab35d;fill-opacity:0.0117647;"/><path d="M20.139,183.446l4.478,3.504l-6.272,1.295l20.751,11.772l-5.478,14.365l3.697,2.87l-2.543,1.873l5.368,0.32l-40.14,40.14l0,-58.77l20.139,-17.369Z" style="fill:#fab35d;fill-opacity:0.0117647;"/><path d="M33.62,214.38l-33.618,33.618l0,11.585l40.14,-40.141l-5.368,-0.319l2.543,-1.873l-3.697,-2.87Z" style="fill:#fab35d;fill-opacity:0.0117647;"/><g><path d="M39.857,182.186l-19.718,1.26l27.024,21.147l-7.306,-22.407Z" style="fill:none;stroke:#fab35d;stroke-width:0.24px;"/><path d="M55.822,194.325l-15.965,-12.139l7.306,22.407l6.776,-3.926l1.883,-6.342Z" style="fill:none;stroke:#fab35d;stroke-width:0.24px;"/><path d="M60.06,182.448l-11.853,6.087l7.615,5.79l4.238,-11.877Z" style="fill:none;stroke:#fab35d;stroke-width:0.24px;"/><path d="M66.627,187.179l-6.567,-4.731l-1.951,5.468l8.518,-0.737Z" style="fill:none;stroke:#fab35d;stroke-width:0.24px;"/><path d="M18.345,188.245l6.272,-1.295l22.546,17.643l-28.818,-16.348Z" style="fill:none;stroke:#fab35d;stroke-width:0.24px;"/><path d="M33.618,214.382l5.478,-14.365l8.067,4.576l-13.545,9.789Z" style="fill:none;stroke:#fab35d;stroke-width:0.24px;"/><path d="M40.14,219.444l-1.994,-8.334l-4.528,3.272l6.522,5.062Z" style="fill:none;stroke:#fab35d;stroke-width:0.24px;"/><path d="M34.772,219.125l2.543,-1.873l2.825,2.193l-5.368,-0.32Z" style="fill:none;stroke:#fab35d;stroke-width:0.24px;"/></g><g><path d="M389.873,126.513l20.618,-14.305l-2.367,20.027l-8.583,3.156l-9.668,-8.878Z" style="fill:none;stroke:#fab35d;stroke-width:0.24px;"/><path d="M435.153,123.799l-24.662,-11.591l-2.367,20.027l27.029,-8.436Z" style="fill:none;stroke:#fab35d;stroke-width:0.24px;"/><path d="M399.319,113.442l2.668,4.668l-12.114,8.403l9.446,-13.071Z" style="fill:none;stroke:#fab35d;stroke-width:0.24px;"/><path d="M387.111,109.447l2.763,17.066l9.445,-13.071l-12.208,-3.995Z" style="fill:none;stroke:#fab35d;stroke-width:0.24px;"/><path d="M382.524,112.702l4.587,-3.255l0.527,3.255l-5.114,0Z" style="fill:none;stroke:#fab35d;stroke-width:0.24px;"/><path d="M411.6,107.375l-12.281,6.067l2.668,4.668l8.504,-5.901l1.109,-4.834Z" style="fill:none;stroke:#fab35d;stroke-width:0.24px;"/><path d="M435.153,119.435l-23.552,-12.06l-1.11,4.833l20.325,9.554l4.337,-2.327Z" style="fill:none;stroke:#fab35d;stroke-width:0.24px;"/><path d="M416.484,149.843l-16.943,-14.452l8.583,-3.156l8.36,17.608Z" style="fill:none;stroke:#fab35d;stroke-width:0.24px;"/><path d="M401.02,166.12l-1.479,-30.729l16.942,14.452l-15.463,16.277Z" style="fill:none;stroke:#fab35d;stroke-width:0.24px;"/></g><g><path d="M30.382,160.594l-5.838,-8.402l-1.668,6.518l7.506,1.884Z" style="fill:#fab35d;fill-opacity:0.498039;fill-rule:nonzero;stroke:#fab35d;stroke-width:0.24px;"/><path d="M16.421,151.235l8.123,0.957l-1.884,7.506l-2.896,-3.928l-3.343,-4.535Z" style="fill:#fab35d;fill-opacity:0.498039;fill-rule:nonzero;stroke:#fab35d;stroke-width:0.24px;"/><path d="M16.421,152.748l1.004,-0.151l2.548,3.456l-3.552,-3.305Z" style="fill:#fab35d;fill-opacity:0.498039;fill-rule:nonzero;stroke:#fab35d;stroke-width:0.24px;"/><path d="M22.66,159.698l1.05,4.603l0,1.204l-3.737,2.842l2.687,-8.649Z" style="fill:#fab35d;fill-opacity:0.498039;fill-rule:nonzero;stroke:#fab35d;stroke-width:0.24px;"/><path d="M30.382,160.594l-6.672,3.707l-1.05,-4.603l0.246,-0.981l7.476,1.877Z" style="fill:#fab35d;fill-opacity:0.498039;fill-rule:nonzero;stroke:#fab35d;stroke-width:0.24px;"/><path d="M30.089,161.637l0.293,-1.043l-6.672,3.707l6.379,-2.664Z" style="fill:#fab35d;fill-opacity:0.498039;fill-rule:nonzero;stroke:#fab35d;stroke-width:0.24px;"/><path d="M32.058,156.586l-4.06,0.576l2.384,3.432l1.676,-4.008Z" style="fill:#fab35d;fill-opacity:0.498039;fill-rule:nonzero;stroke:#fab35d;stroke-width:0.24px;"/><path d="M33.68,158.37l-1.622,-1.784l-0.746,1.784l2.368,0Z" style="fill:#fab35d;fill-opacity:0.498039;fill-rule:nonzero;stroke:#fab35d;stroke-width:0.24px;"/></g><g><path d="M414.472,71.761l7.241,-10.421l2.069,8.084l-9.31,2.337Z" style="fill:#fab35d;fill-opacity:0.498039;fill-rule:nonzero;stroke:#fab35d;stroke-width:0.24px;"/><path d="M431.789,60.153l-10.076,1.187l2.337,9.31l3.592,-4.872l4.147,-5.625Z" style="fill:#fab35d;fill-opacity:0.498039;fill-rule:nonzero;stroke:#fab35d;stroke-width:0.24px;"/><path d="M431.789,62.03l-1.246,-0.188l-3.16,4.287l4.406,-4.099Z" style="fill:#fab35d;fill-opacity:0.498039;fill-rule:nonzero;stroke:#fab35d;stroke-width:0.24px;"/><path d="M424.05,70.65l-1.303,5.708l0,1.494l4.636,3.525l-3.333,-10.727Z" style="fill:#fab35d;fill-opacity:0.498039;fill-rule:nonzero;stroke:#fab35d;stroke-width:0.24px;"/><path d="M414.472,71.761l8.275,4.597l1.303,-5.708l-0.305,-1.217l-9.273,2.328Z" style="fill:#fab35d;fill-opacity:0.498039;fill-rule:nonzero;stroke:#fab35d;stroke-width:0.24px;"/><path d="M414.836,73.054l-0.364,-1.293l8.275,4.597l-7.911,-3.304Z" style="fill:#fab35d;fill-opacity:0.498039;fill-rule:nonzero;stroke:#fab35d;stroke-width:0.24px;"/><path d="M412.394,66.79l5.036,0.715l-2.958,4.256l-2.078,-4.971Z" style="fill:#fab35d;fill-opacity:0.498039;fill-rule:nonzero;stroke:#fab35d;stroke-width:0.24px;"/><path d="M410.383,69.003l2.011,-2.213l0.925,2.213l-2.936,0Z" style="fill:#fab35d;fill-opacity:0.498039;fill-rule:nonzero;stroke:#fab35d;stroke-width:0.24px;"/></g><g><path d="M51.341,152.136l-2.084,-3l-0.596,2.327l2.68,0.673Z" style="fill:#fab35d;fill-rule:nonzero;stroke:#fab35d;stroke-width:0.24px;"/><path d="M46.357,148.794l2.9,0.342l-0.673,2.68l-1.034,-1.402l-1.193,-1.62Z" style="fill:#fab35d;fill-rule:nonzero;stroke:#fab35d;stroke-width:0.24px;"/><path d="M46.357,149.335l0.358,-0.054l0.91,1.234l-1.268,-1.18Z" style="fill:#fab35d;fill-rule:nonzero;stroke:#fab35d;stroke-width:0.24px;"/><path d="M48.584,151.816l0.375,1.643l0,0.43l-1.334,1.015l0.959,-3.088Z" style="fill:#fab35d;fill-rule:nonzero;stroke:#fab35d;stroke-width:0.24px;"/><path d="M51.341,152.136l-2.382,1.323l-0.375,-1.643l0.088,-0.35l2.669,0.67Z" style="fill:#fab35d;fill-rule:nonzero;stroke:#fab35d;stroke-width:0.24px;"/><path d="M51.236,152.508l0.105,-0.372l-2.382,1.323l2.277,-0.951Z" style="fill:#fab35d;fill-rule:nonzero;stroke:#fab35d;stroke-width:0.24px;"/><path d="M51.939,150.705l-1.449,0.206l0.851,1.225l0.598,-1.431Z" style="fill:#fab35d;fill-rule:nonzero;stroke:#fab35d;stroke-width:0.24px;"/><path d="M52.518,151.342l-0.579,-0.637l-0.266,0.637l0.845,0Z" style="fill:#fab35d;fill-rule:nonzero;stroke:#fab35d;stroke-width:0.24px;"/></g><g><path d="M388.478,85.521l2.585,-3.72l0.738,2.886l-3.323,0.834Z" style="fill:#fab35d;fill-rule:nonzero;stroke:#fab35d;stroke-width:0.24px;"/><path d="M394.66,81.377l-3.597,0.424l0.834,3.323l1.282,-1.739l1.481,-2.008Z" style="fill:#fab35d;fill-rule:nonzero;stroke:#fab35d;stroke-width:0.24px;"/><path d="M394.66,82.047l-0.445,-0.067l-1.128,1.53l1.573,-1.463Z" style="fill:#fab35d;fill-rule:nonzero;stroke:#fab35d;stroke-width:0.24px;"/><path d="M391.897,85.124l-0.465,2.038l0,0.534l1.655,1.258l-1.19,-3.83Z" style="fill:#fab35d;fill-rule:nonzero;stroke:#fab35d;stroke-width:0.24px;"/><path d="M388.478,85.521l2.954,1.641l0.465,-2.038l-0.109,-0.434l-3.31,0.831Z" style="fill:#fab35d;fill-rule:nonzero;stroke:#fab35d;stroke-width:0.24px;"/><path d="M388.608,85.983l-0.13,-0.462l2.954,1.641l-2.824,-1.179Z" style="fill:#fab35d;fill-rule:nonzero;stroke:#fab35d;stroke-width:0.24px;"/><path d="M387.736,83.746l1.798,0.256l-1.056,1.519l-0.742,-1.775Z" style="fill:#fab35d;fill-rule:nonzero;stroke:#fab35d;stroke-width:0.24px;"/><path d="M387.018,84.536l0.718,-0.79l0.33,0.79l-1.048,0Z" style="fill:#fab35d;fill-rule:nonzero;stroke:#fab35d;stroke-width:0.24px;"/></g></g></svg>