<?xml version="1.0" encoding="UTF-8" standalone="no"?><!DOCTYPE svg PUBLIC "-//W3C//DTD SVG 1.1//EN" "http://www.w3.org/Graphics/SVG/1.1/DTD/svg11.dtd"><svg width="100%" height="100%" viewBox="0 0 461 308" version="1.1" xmlns="http://www.w3.org/2000/svg" xmlns:xlink="http://www.w3.org/1999/xlink" xml:space="preserve" xmlns:serif="http://www.serif.com/" style="fill-rule:evenodd;clip-rule:evenodd;stroke-linejoin:round;stroke-miterlimit:1.41421;"><g id="about---portfolio" serif:id="about / portfolio"><g><path d="M416.726,63.399l1.712,11.427l-5.539,3.542l-7.165,-3.204l10.992,-11.765Z" style="fill:#fab35d;fill-opacity:0.498039;fill-rule:nonzero;stroke:#fab35d;stroke-width:0.24px;"/><path d="M432.441,66.585l-14.003,8.241l-1.712,-11.427l15.715,3.186Z" style="fill:#fab35d;fill-opacity:0.498039;fill-rule:nonzero;stroke:#fab35d;stroke-width:0.24px;"/><path d="M411.857,68.61l-1.962,-3.394l-4.161,9.948l6.123,-6.554Z" style="fill:#fab35d;fill-opacity:0.498039;fill-rule:nonzero;stroke:#fab35d;stroke-width:0.24px;"/><path d="M401.915,65.116l7.98,0.1l-4.161,9.948l-3.819,-10.048Z" style="fill:#fab35d;fill-opacity:0.498039;fill-rule:nonzero;stroke:#fab35d;stroke-width:0.24px;"/><path d="M400.055,67.867l1.86,-2.751l0.73,1.92l-2.59,0.831Z" style="fill:#fab35d;fill-opacity:0.498039;fill-rule:nonzero;stroke:#fab35d;stroke-width:0.24px;"/><path d="M416.495,60.2l-6.6,5.016l1.962,3.394l4.869,-5.211l-0.231,-3.199Z" style="fill:#fab35d;fill-opacity:0.498039;fill-rule:nonzero;stroke:#fab35d;stroke-width:0.24px;"/><path d="M432.037,64.284l-15.542,-4.084l0.231,3.199l12.666,2.568l2.645,-1.683Z" style="fill:#fab35d;fill-opacity:0.498039;fill-rule:nonzero;stroke:#fab35d;stroke-width:0.24px;"/><path d="M425.096,84.166l-7.332,-8.909l-4.865,3.111l12.197,5.798Z" style="fill:#fab35d;fill-opacity:0.498039;fill-rule:nonzero;stroke:#fab35d;stroke-width:0.24px;"/><path d="M418.412,95.908l-5.513,-17.54l12.197,5.798l-6.684,11.742Z" style="fill:#fab35d;fill-opacity:0.498039;fill-rule:nonzero;stroke:#fab35d;stroke-width:0.24px;"/></g><g><path d="M47.408,125.287l-2.075,13.853l6.715,4.293l8.686,-3.884l-13.326,-14.262Z" style="fill:#fab35d;fill-opacity:0.498039;fill-rule:nonzero;stroke:#fab35d;stroke-width:0.24px;"/><path d="M28.359,129.15l16.975,9.99l2.074,-13.853l-19.049,3.863Z" style="fill:#fab35d;fill-opacity:0.498039;fill-rule:nonzero;stroke:#fab35d;stroke-width:0.24px;"/><path d="M53.311,131.605l2.378,-4.114l5.045,12.059l-7.423,-7.945Z" style="fill:#fab35d;fill-opacity:0.498039;fill-rule:nonzero;stroke:#fab35d;stroke-width:0.24px;"/><path d="M65.363,127.369l-9.673,0.122l5.044,12.058l4.629,-12.18Z" style="fill:#fab35d;fill-opacity:0.498039;fill-rule:nonzero;stroke:#fab35d;stroke-width:0.24px;"/><path d="M67.618,130.703l-2.255,-3.334l-0.884,2.327l3.139,1.007Z" style="fill:#fab35d;fill-opacity:0.498039;fill-rule:nonzero;stroke:#fab35d;stroke-width:0.24px;"/><path d="M47.689,121.41l8,6.081l-2.378,4.113l-5.903,-6.317l0.281,-3.877Z" style="fill:#fab35d;fill-opacity:0.498039;fill-rule:nonzero;stroke:#fab35d;stroke-width:0.24px;"/><path d="M28.849,126.36l18.841,-4.95l-0.282,3.877l-15.353,3.113l-3.206,-2.04Z" style="fill:#fab35d;fill-opacity:0.498039;fill-rule:nonzero;stroke:#fab35d;stroke-width:0.24px;"/><path d="M37.263,150.461l8.887,-10.799l5.898,3.771l-14.785,7.028Z" style="fill:#fab35d;fill-opacity:0.498039;fill-rule:nonzero;stroke:#fab35d;stroke-width:0.24px;"/><path d="M45.366,164.696l6.682,-21.263l-14.785,7.028l8.103,14.235Z" style="fill:#fab35d;fill-opacity:0.498039;fill-rule:nonzero;stroke:#fab35d;stroke-width:0.24px;"/></g><g><g><path d="M157.25,243.877l-6.915,-9.951l-1.975,7.72l8.89,2.231Z" style="fill:none;stroke:#fab35d;stroke-width:0.24px;"/><path d="M140.714,232.792l9.621,1.134l-2.231,8.89l-3.43,-4.653l-3.96,-5.371Z" style="fill:none;stroke:#fab35d;stroke-width:0.24px;"/><path d="M140.714,234.585l1.189,-0.18l3.018,4.094l-4.207,-3.914Z" style="fill:none;stroke:#fab35d;stroke-width:0.24px;"/><path d="M148.104,242.816l1.244,5.451l0,1.427l-4.427,3.366l3.183,-10.244Z" style="fill:none;stroke:#fab35d;stroke-width:0.24px;"/><path d="M157.25,243.877l-7.902,4.39l-1.244,-5.451l0.291,-1.162l8.855,2.223Z" style="fill:none;stroke:#fab35d;stroke-width:0.24px;"/><path d="M156.902,245.112l0.348,-1.235l-7.902,4.39l7.554,-3.155Z" style="fill:none;stroke:#fab35d;stroke-width:0.24px;"/><path d="M159.234,239.13l-4.808,0.683l2.824,4.064l1.984,-4.747Z" style="fill:none;stroke:#fab35d;stroke-width:0.24px;"/><path d="M161.155,241.243l-1.921,-2.113l-0.883,2.113l2.804,0Z" style="fill:none;stroke:#fab35d;stroke-width:0.24px;"/></g></g><g><g><path d="M187.527,233.405l-4.693,-6.754l-1.341,5.239l6.034,1.515Z" style="fill:#fab35d;fill-opacity:0.498039;fill-rule:nonzero;stroke:#fab35d;stroke-width:0.24px;"/><path d="M176.304,225.881l6.53,0.77l-1.515,6.034l-2.328,-3.158l-2.687,-3.646Z" style="fill:#fab35d;fill-opacity:0.498039;fill-rule:nonzero;stroke:#fab35d;stroke-width:0.24px;"/><path d="M176.304,227.098l0.807,-0.122l2.048,2.779l-2.855,-2.657Z" style="fill:#fab35d;fill-opacity:0.498039;fill-rule:nonzero;stroke:#fab35d;stroke-width:0.24px;"/><path d="M181.319,232.685l0.845,3.699l0,0.968l-3.005,2.285l2.16,-6.952Z" style="fill:#fab35d;fill-opacity:0.498039;fill-rule:nonzero;stroke:#fab35d;stroke-width:0.24px;"/><path d="M187.527,233.405l-5.363,2.979l-0.845,-3.699l0.198,-0.789l6.01,1.509Z" style="fill:#fab35d;fill-opacity:0.498039;fill-rule:nonzero;stroke:#fab35d;stroke-width:0.24px;"/><path d="M187.291,234.243l0.236,-0.838l-5.363,2.979l5.127,-2.141Z" style="fill:#fab35d;fill-opacity:0.498039;fill-rule:nonzero;stroke:#fab35d;stroke-width:0.24px;"/><path d="M188.874,230.183l-3.264,0.463l1.917,2.759l1.347,-3.222Z" style="fill:#fab35d;fill-opacity:0.498039;fill-rule:nonzero;stroke:#fab35d;stroke-width:0.24px;"/><path d="M190.177,231.617l-1.303,-1.434l-0.6,1.434l1.903,0Z" style="fill:#fab35d;fill-opacity:0.498039;fill-rule:nonzero;stroke:#fab35d;stroke-width:0.24px;"/></g></g><g><g><path d="M167.407,215.743l-2.614,-3.762l-0.747,2.918l3.361,0.844Z" style="fill:#fab35d;fill-rule:nonzero;stroke:#fab35d;stroke-width:0.24px;"/><path d="M161.155,211.552l3.638,0.429l-0.844,3.361l-1.297,-1.759l-1.497,-2.031Z" style="fill:#fab35d;fill-rule:nonzero;stroke:#fab35d;stroke-width:0.24px;"/><path d="M161.155,212.23l0.45,-0.068l1.141,1.548l-1.591,-1.48Z" style="fill:#fab35d;fill-rule:nonzero;stroke:#fab35d;stroke-width:0.24px;"/><path d="M163.949,215.342l0.471,2.061l0,0.539l-1.674,1.273l1.203,-3.873Z" style="fill:#fab35d;fill-rule:nonzero;stroke:#fab35d;stroke-width:0.24px;"/><path d="M167.407,215.743l-2.987,1.66l-0.471,-2.061l0.11,-0.439l3.348,0.84Z" style="fill:#fab35d;fill-rule:nonzero;stroke:#fab35d;stroke-width:0.24px;"/><path d="M167.276,216.21l0.131,-0.467l-2.987,1.66l2.856,-1.193Z" style="fill:#fab35d;fill-rule:nonzero;stroke:#fab35d;stroke-width:0.24px;"/><path d="M168.158,213.948l-1.818,0.258l1.067,1.537l0.751,-1.795Z" style="fill:#fab35d;fill-rule:nonzero;stroke:#fab35d;stroke-width:0.24px;"/><path d="M168.884,214.747l-0.726,-0.799l-0.334,0.799l1.06,0Z" style="fill:#fab35d;fill-rule:nonzero;stroke:#fab35d;stroke-width:0.24px;"/></g></g></g></svg>