<?xml version="1.0" encoding="UTF-8" standalone="no"?><!DOCTYPE svg PUBLIC "-//W3C//DTD SVG 1.1//EN" "http://www.w3.org/Graphics/SVG/1.1/DTD/svg11.dtd"><svg width="100%" height="100%" viewBox="0 0 461 308" version="1.1" xmlns="http://www.w3.org/2000/svg" xmlns:xlink="http://www.w3.org/1999/xlink" xml:space="preserve" xmlns:serif="http://www.serif.com/" style="fill-rule:evenodd;clip-rule:evenodd;stroke-linejoin:round;stroke-miterlimit:1.41421;"><g id="contact---services" serif:id="contact / services"><path d="M59.78,166.12l-15.463,-16.277l8.359,-17.608l-27.029,-8.436l4.336,-2.037l-4.336,-2.327l-25.647,25.647l0,79.816l59.78,-58.778Z" style="fill:#fab35d;fill-opacity:0.0117647;"/><path d="M44.316,149.843l-44.316,44.316l0,30.739l59.78,-58.778l-15.464,-16.277Z" style="fill:#fab35d;fill-opacity:0.0117647;"/><path d="M440.661,183.446l-4.478,3.504l6.272,1.295l-20.751,11.772l5.478,14.365l-3.697,2.87l2.543,1.873l-5.368,0.32l40.14,40.14l0,-58.77l-20.139,-17.369Z" style="fill:#fab35d;fill-opacity:0.0117647;"/><path d="M427.18,214.38l33.618,33.618l0,11.585l-40.14,-40.141l5.368,-0.319l-2.543,-1.873l3.697,-2.87Z" style="fill:#fab35d;fill-opacity:0.0117647;"/><g><path d="M420.943,182.186l19.718,1.26l-27.024,21.147l7.306,-22.407Z" style="fill:none;stroke:#fab35d;stroke-width:0.24px;"/><path d="M404.978,194.325l15.965,-12.139l-7.306,22.407l-6.776,-3.926l-1.883,-6.342Z" style="fill:none;stroke:#fab35d;stroke-width:0.24px;"/><path d="M400.74,182.448l11.853,6.087l-7.615,5.79l-4.238,-11.877Z" style="fill:none;stroke:#fab35d;stroke-width:0.24px;"/><path d="M394.173,187.179l6.567,-4.731l1.951,5.468l-8.518,-0.737Z" style="fill:none;stroke:#fab35d;stroke-width:0.24px;"/><path d="M442.455,188.245l-6.272,-1.295l-22.546,17.643l28.818,-16.348Z" style="fill:none;stroke:#fab35d;stroke-width:0.24px;"/><path d="M427.182,214.382l-5.478,-14.365l-8.067,4.576l13.545,9.789Z" style="fill:none;stroke:#fab35d;stroke-width:0.24px;"/><path d="M420.66,219.444l1.994,-8.334l4.528,3.272l-6.522,5.062Z" style="fill:none;stroke:#fab35d;stroke-width:0.24px;"/><path d="M426.028,219.125l-2.543,-1.873l-2.825,2.193l5.368,-0.32Z" style="fill:none;stroke:#fab35d;stroke-width:0.24px;"/></g><g><path d="M70.927,126.513l-20.618,-14.305l2.367,20.027l8.583,3.156l9.668,-8.878Z" style="fill:none;stroke:#fab35d;stroke-width:0.24px;"/><path d="M25.647,123.799l24.662,-11.591l2.367,20.027l-27.029,-8.436Z" style="fill:none;stroke:#fab35d;stroke-width:0.24px;"/><path d="M61.481,113.442l-2.668,4.668l12.114,8.403l-9.446,-13.071Z" style="fill:none;stroke:#fab35d;stroke-width:0.24px;"/><path d="M73.689,109.447l-2.763,17.066l-9.445,-13.071l12.208,-3.995Z" style="fill:none;stroke:#fab35d;stroke-width:0.24px;"/><path d="M78.276,112.702l-4.587,-3.255l-0.527,3.255l5.114,0Z" style="fill:none;stroke:#fab35d;stroke-width:0.24px;"/><path d="M49.2,107.375l12.281,6.067l-2.668,4.668l-8.504,-5.901l-1.109,-4.834Z" style="fill:none;stroke:#fab35d;stroke-width:0.24px;"/><path d="M25.647,119.435l23.552,-12.06l1.11,4.833l-20.325,9.554l-4.337,-2.327Z" style="fill:none;stroke:#fab35d;stroke-width:0.24px;"/><path d="M44.316,149.843l16.943,-14.452l-8.583,-3.156l-8.36,17.608Z" style="fill:none;stroke:#fab35d;stroke-width:0.24px;"/><path d="M59.78,166.12l1.479,-30.729l-16.942,14.452l15.463,16.277Z" style="fill:none;stroke:#fab35d;stroke-width:0.24px;"/></g><g><path d="M430.418,160.594l5.838,-8.402l1.668,6.518l-7.506,1.884Z" style="fill:#fab35d;fill-opacity:0.498039;fill-rule:nonzero;stroke:#fab35d;stroke-width:0.24px;"/><path d="M444.379,151.235l-8.123,0.957l1.884,7.506l2.896,-3.928l3.343,-4.535Z" style="fill:#fab35d;fill-opacity:0.498039;fill-rule:nonzero;stroke:#fab35d;stroke-width:0.24px;"/><path d="M444.379,152.748l-1.004,-0.151l-2.548,3.456l3.552,-3.305Z" style="fill:#fab35d;fill-opacity:0.498039;fill-rule:nonzero;stroke:#fab35d;stroke-width:0.24px;"/><path d="M438.14,159.698l-1.05,4.603l0,1.204l3.737,2.842l-2.687,-8.649Z" style="fill:#fab35d;fill-opacity:0.498039;fill-rule:nonzero;stroke:#fab35d;stroke-width:0.24px;"/><path d="M430.418,160.594l6.672,3.707l1.05,-4.603l-0.246,-0.981l-7.476,1.877Z" style="fill:#fab35d;fill-opacity:0.498039;fill-rule:nonzero;stroke:#fab35d;stroke-width:0.24px;"/><path d="M430.711,161.637l-0.293,-1.043l6.672,3.707l-6.379,-2.664Z" style="fill:#fab35d;fill-opacity:0.498039;fill-rule:nonzero;stroke:#fab35d;stroke-width:0.24px;"/><path d="M428.742,156.586l4.06,0.576l-2.384,3.432l-1.676,-4.008Z" style="fill:#fab35d;fill-opacity:0.498039;fill-rule:nonzero;stroke:#fab35d;stroke-width:0.24px;"/><path d="M427.12,158.37l1.622,-1.784l0.746,1.784l-2.368,0Z" style="fill:#fab35d;fill-opacity:0.498039;fill-rule:nonzero;stroke:#fab35d;stroke-width:0.24px;"/></g><g><path d="M46.328,71.761l-7.241,-10.421l-2.069,8.084l9.31,2.337Z" style="fill:#fab35d;fill-opacity:0.498039;fill-rule:nonzero;stroke:#fab35d;stroke-width:0.24px;"/><path d="M29.011,60.153l10.076,1.187l-2.337,9.31l-3.592,-4.872l-4.147,-5.625Z" style="fill:#fab35d;fill-opacity:0.498039;fill-rule:nonzero;stroke:#fab35d;stroke-width:0.24px;"/><path d="M29.011,62.03l1.246,-0.188l3.16,4.287l-4.406,-4.099Z" style="fill:#fab35d;fill-opacity:0.498039;fill-rule:nonzero;stroke:#fab35d;stroke-width:0.24px;"/><path d="M36.75,70.65l1.303,5.708l0,1.494l-4.636,3.525l3.333,-10.727Z" style="fill:#fab35d;fill-opacity:0.498039;fill-rule:nonzero;stroke:#fab35d;stroke-width:0.24px;"/><path d="M46.328,71.761l-8.275,4.597l-1.303,-5.708l0.305,-1.217l9.273,2.328Z" style="fill:#fab35d;fill-opacity:0.498039;fill-rule:nonzero;stroke:#fab35d;stroke-width:0.24px;"/><path d="M45.964,73.054l0.364,-1.293l-8.275,4.597l7.911,-3.304Z" style="fill:#fab35d;fill-opacity:0.498039;fill-rule:nonzero;stroke:#fab35d;stroke-width:0.24px;"/><path d="M48.406,66.79l-5.036,0.715l2.958,4.256l2.078,-4.971Z" style="fill:#fab35d;fill-opacity:0.498039;fill-rule:nonzero;stroke:#fab35d;stroke-width:0.24px;"/><path d="M50.417,69.003l-2.011,-2.213l-0.925,2.213l2.936,0Z" style="fill:#fab35d;fill-opacity:0.498039;fill-rule:nonzero;stroke:#fab35d;stroke-width:0.24px;"/></g><g><path d="M409.459,152.136l2.084,-3l0.596,2.327l-2.68,0.673Z" style="fill:#fab35d;fill-rule:nonzero;stroke:#fab35d;stroke-width:0.24px;"/><path d="M414.443,148.794l-2.9,0.342l0.673,2.68l1.034,-1.402l1.193,-1.62Z" style="fill:#fab35d;fill-rule:nonzero;stroke:#fab35d;stroke-width:0.24px;"/><path d="M414.443,149.335l-0.358,-0.054l-0.91,1.234l1.268,-1.18Z" style="fill:#fab35d;fill-rule:nonzero;stroke:#fab35d;stroke-width:0.24px;"/><path d="M412.216,151.816l-0.375,1.643l0,0.43l1.334,1.015l-0.959,-3.088Z" style="fill:#fab35d;fill-rule:nonzero;stroke:#fab35d;stroke-width:0.24px;"/><path d="M409.459,152.136l2.382,1.323l0.375,-1.643l-0.088,-0.35l-2.669,0.67Z" style="fill:#fab35d;fill-rule:nonzero;stroke:#fab35d;stroke-width:0.24px;"/><path d="M409.564,152.508l-0.105,-0.372l2.382,1.323l-2.277,-0.951Z" style="fill:#fab35d;fill-rule:nonzero;stroke:#fab35d;stroke-width:0.24px;"/><path d="M408.861,150.705l1.449,0.206l-0.851,1.225l-0.598,-1.431Z" style="fill:#fab35d;fill-rule:nonzero;stroke:#fab35d;stroke-width:0.24px;"/><path d="M408.282,151.342l0.579,-0.637l0.266,0.637l-0.845,0Z" style="fill:#fab35d;fill-rule:nonzero;stroke:#fab35d;stroke-width:0.24px;"/></g><g><path d="M72.322,85.521l-2.585,-3.72l-0.738,2.886l3.323,0.834Z" style="fill:#fab35d;fill-rule:nonzero;stroke:#fab35d;stroke-width:0.24px;"/><path d="M66.14,81.377l3.597,0.424l-0.834,3.323l-1.282,-1.739l-1.481,-2.008Z" style="fill:#fab35d;fill-rule:nonzero;stroke:#fab35d;stroke-width:0.24px;"/><path d="M66.14,82.047l0.445,-0.067l1.128,1.53l-1.573,-1.463Z" style="fill:#fab35d;fill-rule:nonzero;stroke:#fab35d;stroke-width:0.24px;"/><path d="M68.903,85.124l0.465,2.038l0,0.534l-1.655,1.258l1.19,-3.83Z" style="fill:#fab35d;fill-rule:nonzero;stroke:#fab35d;stroke-width:0.24px;"/><path d="M72.322,85.521l-2.954,1.641l-0.465,-2.038l0.109,-0.434l3.31,0.831Z" style="fill:#fab35d;fill-rule:nonzero;stroke:#fab35d;stroke-width:0.24px;"/><path d="M72.192,85.983l0.13,-0.462l-2.954,1.641l2.824,-1.179Z" style="fill:#fab35d;fill-rule:nonzero;stroke:#fab35d;stroke-width:0.24px;"/><path d="M73.064,83.746l-1.798,0.256l1.056,1.519l0.742,-1.775Z" style="fill:#fab35d;fill-rule:nonzero;stroke:#fab35d;stroke-width:0.24px;"/><path d="M73.782,84.536l-0.718,-0.79l-0.33,0.79l1.048,0Z" style="fill:#fab35d;fill-rule:nonzero;stroke:#fab35d;stroke-width:0.24px;"/></g></g></svg>